<svg width="206" height="48" viewBox="0 0 206 48" fill="none" xmlns="http://www.w3.org/2000/svg">
<path d="M26.0737 0H20.6479V41.7081H4.52144V40.323H0V46.4791H26.0737V0Z" fill="white"/>
<path d="M30.0413 0H35.4671V41.7081H51.5935V40.323H56.115V46.4791H30.0413V0Z" fill="white"/>
<rect x="64.0505" width="0.850228" height="46.4791" fill="#D9D9D9"/>
<path d="M73.8256 32.2189V31.7291H75.1043C75.3583 31.7291 75.4852 31.6022 75.4852 31.3482V15.8945C75.4852 15.6768 75.3583 15.568 75.1043 15.568H73.8256V15.0783H79.3759V15.568H78.0972C77.8432 15.568 77.7162 15.6768 77.7162 15.8945V31.4571H83.1305C83.6021 31.4571 83.856 31.2575 83.8923 30.8585L84.3004 27.6753H84.9262V28.954C84.9262 30.5502 85.0078 31.7201 85.171 32.4637C84.5906 32.3005 83.584 32.2189 82.151 32.2189H73.8256ZM96.7926 20.3021V31.3482C96.7926 31.6022 96.9196 31.7291 97.1735 31.7291H98.4523V32.2189H97.1191C96.0308 32.2189 95.269 32.2733 94.8337 32.3821V28.7091C94.217 31.2666 92.8566 32.5454 90.7526 32.5454C89.8094 32.5454 89.0113 32.2098 88.3583 31.5387C87.7054 30.8494 87.3789 29.8065 87.3789 28.4098V21.336C87.3789 21.082 87.2519 20.955 86.998 20.955H85.7192V20.4653H87.0524C88.1407 20.4653 88.9025 20.4109 89.3378 20.3021V28.7635C89.3378 29.6886 89.5373 30.3778 89.9364 30.8313C90.3535 31.2666 90.8977 31.4843 91.5688 31.4843C92.5301 31.4843 93.3101 30.9039 93.9086 29.743C94.5253 28.564 94.8337 26.8772 94.8337 24.6824V21.336C94.8337 21.082 94.7067 20.955 94.4528 20.955H93.174V20.4653H94.5072C95.5955 20.4653 96.3573 20.4109 96.7926 20.3021ZM105.896 20.7918C104.862 20.7918 104.018 21.2906 103.365 22.2882C102.73 23.2677 102.413 24.619 102.413 26.3421C102.413 28.0652 102.721 29.4256 103.338 30.4232C103.973 31.4027 104.78 31.8924 105.76 31.8924C106.757 31.8924 107.573 31.6384 108.208 31.1306C108.843 30.6227 109.278 29.8972 109.514 28.954L110.031 29.0628C109.813 30.1693 109.315 31.0308 108.535 31.6475C107.755 32.2461 106.857 32.5454 105.841 32.5454C104.263 32.5454 102.948 31.9921 101.896 30.8857C100.862 29.7793 100.345 28.2647 100.345 26.3421C100.345 24.4194 100.871 22.9049 101.923 21.7985C102.975 20.692 104.299 20.1388 105.896 20.1388C107.129 20.1388 108.054 20.42 108.671 20.9823C109.287 21.5264 109.596 22.261 109.596 23.186C109.596 24.3832 109.26 24.9817 108.589 24.9817C108.045 24.9817 107.61 24.8366 107.283 24.5464C107.537 24.0023 107.664 23.44 107.664 22.8596C107.664 22.261 107.51 21.7713 107.202 21.3904C106.911 20.9913 106.476 20.7918 105.896 20.7918ZM118.49 25.8796L118.517 24.9273V23.9751C118.517 21.8529 117.828 20.7918 116.449 20.7918C115.851 20.7918 115.379 21.0004 115.034 21.4176C114.708 21.8166 114.545 22.2882 114.545 22.8324C114.545 23.3765 114.617 23.8481 114.762 24.2471C114.454 24.5192 114.028 24.6552 113.484 24.6552C112.94 24.6552 112.667 24.2109 112.667 23.3221C112.667 22.4333 113.012 21.6806 113.701 21.0639C114.409 20.4472 115.406 20.1388 116.694 20.1388C119.215 20.1388 120.476 21.6262 120.476 24.6008V30.1783C120.476 31.1578 120.748 31.6475 121.292 31.6475C121.546 31.6475 121.764 31.5296 121.945 31.2938C122.145 31.058 122.244 30.786 122.244 30.4776C122.244 30.1693 122.217 29.879 122.163 29.607L122.68 29.5253C122.752 29.7974 122.789 30.0967 122.789 30.4232C122.789 31.0762 122.589 31.5931 122.19 31.974C121.809 32.3549 121.301 32.5454 120.666 32.5454C120.032 32.5454 119.515 32.2914 119.116 31.7836C118.717 31.2575 118.517 30.4776 118.517 29.4437V28.954C118.209 30.1874 117.719 31.0943 117.048 31.6747C116.377 32.2551 115.597 32.5454 114.708 32.5454C113.837 32.5454 113.13 32.2733 112.586 31.7291C112.06 31.1669 111.797 30.4323 111.797 29.5253C111.797 28.6003 112.223 27.7841 113.076 27.0767C113.928 26.3512 115.152 25.9884 116.749 25.9884C117.093 25.9884 117.674 26.0337 118.49 26.1244V25.8796ZM115.334 31.5115C116.096 31.5115 116.776 31.0852 117.374 30.2327C117.991 29.3621 118.354 28.1468 118.463 26.587C118.281 26.5688 118.027 26.5598 117.701 26.5598C116.25 26.5598 115.207 26.8681 114.572 27.4848C113.955 28.0834 113.647 28.7817 113.647 29.5798C113.647 30.1058 113.801 30.5592 114.109 30.9401C114.418 31.321 114.826 31.5115 115.334 31.5115ZM127.821 24.8457L130.651 25.9068C131.322 26.1607 131.83 26.5507 132.175 27.0767C132.537 27.5846 132.719 28.1559 132.719 28.7908C132.719 29.7702 132.329 30.6408 131.549 31.4027C130.769 32.1645 129.717 32.5454 128.393 32.5454C127.087 32.5454 125.853 32.3005 124.693 31.8108C124.801 31.3754 124.856 30.6136 124.856 29.5253V28.4371H125.346L125.536 29.8518C125.699 31.2122 126.652 31.8924 128.393 31.8924C129.173 31.8924 129.817 31.6566 130.325 31.185C130.851 30.6953 131.114 30.142 131.114 29.5253C131.114 28.6729 130.597 28.0562 129.563 27.6753L126.733 26.6142C126.098 26.3784 125.618 26.0065 125.291 25.4987C124.965 24.9908 124.801 24.4194 124.801 23.7846C124.801 22.8233 125.146 21.9799 125.835 21.2543C126.525 20.5107 127.386 20.1388 128.42 20.1388C129.472 20.1388 130.651 20.3837 131.957 20.8734C131.848 21.3087 131.794 22.0705 131.794 23.1588V24.2471H131.304L131.114 22.8324C130.968 21.5264 130.143 20.8734 128.638 20.8734C127.967 20.8734 127.413 21.082 126.978 21.4992C126.543 21.9164 126.325 22.4061 126.325 22.9684C126.325 23.839 126.824 24.4648 127.821 24.8457ZM141.684 32.2189V31.7291H142.963C143.217 31.7291 143.344 31.6022 143.344 31.3482V15.8945C143.344 15.6768 143.217 15.568 142.963 15.568H141.684V15.0783H147.235V15.568H145.956C145.702 15.568 145.575 15.6768 145.575 15.8945V31.4571H150.989C151.461 31.4571 151.715 31.2575 151.751 30.8585L152.159 27.6753H152.785V28.954C152.785 30.5502 152.867 31.7201 153.03 32.4637C152.449 32.3005 151.443 32.2189 150.01 32.2189H141.684ZM159.618 20.1388C160.87 20.1388 161.858 20.556 162.584 21.3904C163.309 22.2247 163.672 23.4491 163.672 25.0634C163.672 25.3898 163.654 25.7526 163.618 26.1516H156.19V26.3421C156.19 28.0652 156.498 29.4256 157.115 30.4232C157.75 31.4027 158.557 31.8924 159.536 31.8924C160.534 31.8924 161.35 31.6384 161.985 31.1306C162.62 30.6227 163.055 29.8972 163.291 28.954L163.808 29.0628C163.59 30.1693 163.092 31.0308 162.312 31.6475C161.532 32.2461 160.634 32.5454 159.618 32.5454C158.04 32.5454 156.725 31.9921 155.673 30.8857C154.639 29.7793 154.122 28.2738 154.122 26.3693C154.122 24.4467 154.648 22.9321 155.7 21.8257C156.752 20.7011 158.058 20.1388 159.618 20.1388ZM161.795 24.1383C161.795 21.9073 160.96 20.7918 159.292 20.7918C158.457 20.7918 157.741 21.2453 157.142 22.1522C156.562 23.0591 156.253 24.2109 156.217 25.6075H161.686C161.758 24.9908 161.795 24.5011 161.795 24.1383ZM167.927 31.3482V21.336C167.927 21.082 167.8 20.955 167.546 20.955H166.268V20.4653H167.601C168.689 20.4653 169.451 20.4109 169.886 20.3021V31.4027C169.886 31.6203 170.013 31.7291 170.267 31.7291H171.546V32.2189H166.268V31.7291H167.546C167.8 31.7291 167.927 31.6022 167.927 31.3482ZM167.982 17.4725C167.746 17.2186 167.628 16.9102 167.628 16.5475C167.628 16.1847 167.746 15.8854 167.982 15.6496C168.236 15.3957 168.544 15.2687 168.907 15.2687C169.27 15.2687 169.569 15.3957 169.805 15.6496C170.059 15.8854 170.186 16.1847 170.186 16.5475C170.186 16.9102 170.059 17.2186 169.805 17.4725C169.569 17.7083 169.27 17.8262 168.907 17.8262C168.544 17.8262 168.236 17.7083 167.982 17.4725ZM176.105 17.5813H176.513V20.4653H179.233V20.955H176.513V30.1783C176.513 31.1578 176.785 31.6475 177.329 31.6475C177.583 31.6475 177.801 31.5296 177.982 31.2938C178.181 31.058 178.281 30.786 178.281 30.4776C178.281 30.1693 178.254 29.879 178.2 29.607L178.717 29.5253C178.789 29.7974 178.825 30.0967 178.825 30.4232C178.825 31.0762 178.626 31.5931 178.227 31.974C177.846 32.3549 177.338 32.5454 176.703 32.5454C176.068 32.5454 175.551 32.2914 175.152 31.7836C174.753 31.2575 174.554 30.4776 174.554 29.4437V21.336C174.554 21.082 174.427 20.955 174.173 20.955H172.894V20.4653H174.227C174.808 20.4653 175.434 19.504 176.105 17.5813ZM186.374 20.1388C187.625 20.1388 188.614 20.556 189.339 21.3904C190.065 22.2247 190.428 23.4491 190.428 25.0634C190.428 25.3898 190.409 25.7526 190.373 26.1516H182.946V26.3421C182.946 28.0652 183.254 29.4256 183.871 30.4232C184.505 31.4027 185.313 31.8924 186.292 31.8924C187.29 31.8924 188.106 31.6384 188.741 31.1306C189.376 30.6227 189.811 29.8972 190.047 28.954L190.564 29.0628C190.346 30.1693 189.847 31.0308 189.067 31.6475C188.287 32.2461 187.389 32.5454 186.374 32.5454C184.796 32.5454 183.481 31.9921 182.429 30.8857C181.395 29.7793 180.878 28.2738 180.878 26.3693C180.878 24.4467 181.404 22.9321 182.456 21.8257C183.508 20.7011 184.814 20.1388 186.374 20.1388ZM188.55 24.1383C188.55 21.9073 187.716 20.7918 186.047 20.7918C185.213 20.7918 184.496 21.2453 183.898 22.1522C183.317 23.0591 183.009 24.2109 182.973 25.6075H188.441C188.514 24.9908 188.55 24.5011 188.55 24.1383Z" fill="white"/>
<path d="M75.1782 45.6525C74.7792 45.6525 74.3801 45.5437 73.9811 45.326C73.8481 45.2595 73.7574 45.2263 73.709 45.2263C73.6183 45.2263 73.5699 45.2897 73.5639 45.4167L73.5548 45.5437H73.3825V44.0291H73.5458C73.6002 44.4947 73.7725 44.8393 74.0627 45.063C74.359 45.2807 74.7066 45.3895 75.1056 45.3895C75.5107 45.3895 75.8161 45.2807 76.0216 45.063C76.2332 44.8453 76.339 44.5884 76.339 44.2921C76.339 43.8205 76.067 43.4638 75.5228 43.222L74.4436 42.7413C74.1171 42.5962 73.8722 42.3997 73.709 42.1518C73.5458 41.8979 73.4641 41.6258 73.4641 41.3356C73.4641 40.8942 73.6123 40.5164 73.9085 40.202C74.2048 39.8815 74.631 39.7213 75.1873 39.7213C75.5138 39.7213 75.8493 39.8301 76.1939 40.0478C76.3088 40.1143 76.3874 40.1476 76.4297 40.1476C76.5083 40.1476 76.5507 40.0841 76.5567 39.9571L76.5658 39.7757H76.7381V41.3447H76.5748C76.5265 40.8791 76.3753 40.5375 76.1214 40.3199C75.8735 40.0962 75.5682 39.9843 75.2054 39.9843C74.8487 39.9843 74.5706 40.0841 74.371 40.2836C74.1776 40.4771 74.0808 40.7008 74.0808 40.9547C74.0808 41.2026 74.1473 41.4263 74.2804 41.6258C74.4194 41.8253 74.622 41.9825 74.888 42.0974L75.9763 42.5781C76.339 42.7413 76.6111 42.956 76.7925 43.222C76.9799 43.482 77.0736 43.7631 77.0736 44.0654C77.0736 44.4947 76.9013 44.8665 76.5567 45.1809C76.2121 45.4953 75.7526 45.6525 75.1782 45.6525ZM78.3077 45.0993C77.9691 44.7305 77.7998 44.2256 77.7998 43.5847C77.7998 42.9439 77.9691 42.439 78.3077 42.0702C78.6463 41.7014 79.0876 41.517 79.6318 41.517C80.1759 41.517 80.6173 41.7014 80.9559 42.0702C81.3005 42.439 81.4728 42.9439 81.4728 43.5847C81.4728 44.2256 81.3005 44.7305 80.9559 45.0993C80.6173 45.4681 80.1759 45.6525 79.6318 45.6525C79.0876 45.6525 78.6463 45.4681 78.3077 45.0993ZM78.8155 42.2244C78.5979 42.5569 78.4891 43.0104 78.4891 43.5847C78.4891 44.1591 78.5979 44.6156 78.8155 44.9542C79.0332 45.2867 79.3053 45.453 79.6318 45.453C79.9582 45.453 80.2303 45.2867 80.448 44.9542C80.6717 44.6156 80.7835 44.1591 80.7835 43.5847C80.7835 43.0104 80.6717 42.5569 80.448 42.2244C80.2303 41.8858 79.9582 41.7165 79.6318 41.7165C79.3053 41.7165 79.0332 41.8858 78.8155 42.2244ZM84.0516 41.7346C83.707 41.7346 83.4258 41.9009 83.2082 42.2334C82.9966 42.5599 82.8908 43.0104 82.8908 43.5847C82.8908 44.1591 82.9935 44.6126 83.1991 44.9451C83.4107 45.2716 83.6798 45.4348 84.0063 45.4348C84.3388 45.4348 84.6109 45.3502 84.8225 45.1809C85.0341 45.0116 85.1792 44.7698 85.2578 44.4554L85.4301 44.4917C85.3576 44.8605 85.1913 45.1477 84.9313 45.3532C84.6713 45.5527 84.372 45.6525 84.0335 45.6525C83.5075 45.6525 83.0691 45.4681 82.7184 45.0993C82.3738 44.7305 82.2015 44.2256 82.2015 43.5847C82.2015 42.9439 82.3768 42.439 82.7275 42.0702C83.0782 41.7014 83.5195 41.517 84.0516 41.517C84.4627 41.517 84.7711 41.6107 84.9767 41.7981C85.1822 41.9795 85.285 42.2244 85.285 42.5327C85.285 42.9318 85.1731 43.1313 84.9494 43.1313C84.7681 43.1313 84.623 43.0829 84.5141 42.9862C84.5988 42.8048 84.6411 42.6174 84.6411 42.4239C84.6411 42.2244 84.5897 42.0611 84.4869 41.9342C84.3902 41.8012 84.2451 41.7346 84.0516 41.7346ZM86.6172 45.2535V41.916C86.6172 41.8314 86.5749 41.7891 86.4903 41.7891H86.064V41.6258H86.5084C86.8712 41.6258 87.1251 41.6077 87.2702 41.5714V45.2716C87.2702 45.3442 87.3125 45.3804 87.3972 45.3804H87.8234V45.5437H86.064V45.3804H86.4903C86.5749 45.3804 86.6172 45.3381 86.6172 45.2535ZM86.6354 40.6282C86.5568 40.5436 86.5175 40.4408 86.5175 40.3199C86.5175 40.1989 86.5568 40.0992 86.6354 40.0206C86.72 39.9359 86.8228 39.8936 86.9437 39.8936C87.0646 39.8936 87.1644 39.9359 87.243 40.0206C87.3277 40.0992 87.37 40.1989 87.37 40.3199C87.37 40.4408 87.3277 40.5436 87.243 40.6282C87.1644 40.7068 87.0646 40.7461 86.9437 40.7461C86.8228 40.7461 86.72 40.7068 86.6354 40.6282ZM90.2862 41.517C90.7034 41.517 91.0329 41.656 91.2747 41.9342C91.5166 42.2123 91.6375 42.6204 91.6375 43.1585C91.6375 43.2673 91.6314 43.3882 91.6193 43.5213H89.1435V43.5847C89.1435 44.1591 89.2463 44.6126 89.4518 44.9451C89.6634 45.2716 89.9325 45.4348 90.259 45.4348C90.5915 45.4348 90.8636 45.3502 91.0752 45.1809C91.2868 45.0116 91.4319 44.7698 91.5105 44.4554L91.6828 44.4917C91.6103 44.8605 91.444 45.1477 91.184 45.3532C90.924 45.5527 90.6248 45.6525 90.2862 45.6525C89.7602 45.6525 89.3218 45.4681 88.9712 45.0993C88.6265 44.7305 88.4542 44.2287 88.4542 43.5938C88.4542 42.9529 88.6296 42.4481 88.9802 42.0793C89.3309 41.7044 89.7662 41.517 90.2862 41.517ZM91.0117 42.8501C91.0117 42.1065 90.7336 41.7346 90.1774 41.7346C89.8992 41.7346 89.6604 41.8858 89.4609 42.1881C89.2674 42.4904 89.1646 42.8743 89.1525 43.3399H90.9754C90.9996 43.1343 91.0117 42.9711 91.0117 42.8501ZM95.1509 45.5981V44.8181C94.8123 45.3744 94.4103 45.6525 93.9447 45.6525C93.4852 45.6525 93.1225 45.4681 92.8564 45.0993C92.5904 44.7305 92.4574 44.2287 92.4574 43.5938C92.4574 42.959 92.6267 42.4541 92.9653 42.0793C93.3038 41.7044 93.7301 41.517 94.244 41.517C94.5765 41.517 94.8788 41.5986 95.1509 41.7619V39.9571C95.1509 39.8725 95.1086 39.8301 95.0239 39.8301H94.5977V39.6669H95.0421C95.4048 39.6669 95.6588 39.6488 95.8039 39.6125V45.2535C95.8039 45.3381 95.8462 45.3804 95.9308 45.3804H96.3571V45.5437H95.9127C95.5499 45.5437 95.296 45.5618 95.1509 45.5981ZM94.2621 41.7891C93.9538 41.7891 93.6908 41.9463 93.4731 42.2607C93.2555 42.569 93.1466 43.0013 93.1466 43.5575C93.1466 44.1138 93.2343 44.5461 93.4096 44.8544C93.591 45.1567 93.8177 45.3079 94.0898 45.3079C94.4828 45.3079 94.8365 45.0328 95.1509 44.4826V42.043C94.8728 41.8737 94.5765 41.7891 94.2621 41.7891ZM99.2229 43.4306L99.232 43.1132V42.7957C99.232 42.0883 99.0023 41.7346 98.5427 41.7346C98.3432 41.7346 98.186 41.8042 98.0712 41.9432C97.9623 42.0763 97.9079 42.2334 97.9079 42.4148C97.9079 42.5962 97.9321 42.7534 97.9805 42.8864C97.8777 42.9771 97.7356 43.0225 97.5542 43.0225C97.3728 43.0225 97.2821 42.8743 97.2821 42.5781C97.2821 42.2818 97.397 42.0309 97.6268 41.8253C97.8626 41.6198 98.1951 41.517 98.6244 41.517C99.4648 41.517 99.885 42.0128 99.885 43.0043V44.8635C99.885 45.19 99.9757 45.3532 100.157 45.3532C100.242 45.3532 100.314 45.3139 100.375 45.2353C100.441 45.1567 100.474 45.066 100.474 44.9632C100.474 44.8605 100.465 44.7637 100.447 44.673L100.62 44.6458C100.644 44.7365 100.656 44.8363 100.656 44.9451C100.656 45.1628 100.589 45.3351 100.456 45.462C100.329 45.589 100.16 45.6525 99.9485 45.6525C99.7368 45.6525 99.5645 45.5679 99.4315 45.3986C99.2985 45.2232 99.232 44.9632 99.232 44.6186V44.4554C99.1292 44.8665 98.966 45.1688 98.7423 45.3623C98.5186 45.5558 98.2586 45.6525 97.9623 45.6525C97.6721 45.6525 97.4363 45.5618 97.2549 45.3804C97.0796 45.193 96.9919 44.9481 96.9919 44.6458C96.9919 44.3375 97.134 44.0654 97.4182 43.8296C97.7023 43.5878 98.1105 43.4668 98.6425 43.4668C98.7574 43.4668 98.9509 43.482 99.2229 43.5122V43.4306ZM98.1709 45.3079C98.4249 45.3079 98.6516 45.1658 98.8511 44.8816C99.0567 44.5914 99.1776 44.1863 99.2139 43.6664C99.1534 43.6603 99.0688 43.6573 98.9599 43.6573C98.4762 43.6573 98.1286 43.7601 97.917 43.9656C97.7114 44.1652 97.6086 44.3979 97.6086 44.664C97.6086 44.8393 97.66 44.9905 97.7628 45.1174C97.8656 45.2444 98.0016 45.3079 98.1709 45.3079ZM103.848 45.5981V44.8181C103.509 45.3744 103.107 45.6525 102.642 45.6525C102.182 45.6525 101.82 45.4681 101.554 45.0993C101.288 44.7305 101.155 44.2287 101.155 43.5938C101.155 42.959 101.324 42.4541 101.662 42.0793C102.001 41.7044 102.427 41.517 102.941 41.517C103.274 41.517 103.576 41.5986 103.848 41.7619V39.9571C103.848 39.8725 103.806 39.8301 103.721 39.8301H103.295V39.6669H103.739C104.102 39.6669 104.356 39.6488 104.501 39.6125V45.2535C104.501 45.3381 104.543 45.3804 104.628 45.3804H105.054V45.5437H104.61C104.247 45.5437 103.993 45.5618 103.848 45.5981ZM102.959 41.7891C102.651 41.7891 102.388 41.9463 102.17 42.2607C101.953 42.569 101.844 43.0013 101.844 43.5575C101.844 44.1138 101.931 44.5461 102.107 44.8544C102.288 45.1567 102.515 45.3079 102.787 45.3079C103.18 45.3079 103.534 45.0328 103.848 44.4826V42.043C103.57 41.8737 103.274 41.7891 102.959 41.7891ZM107.521 41.517C107.938 41.517 108.268 41.656 108.51 41.9342C108.751 42.2123 108.872 42.6204 108.872 43.1585C108.872 43.2673 108.866 43.3882 108.854 43.5213H106.378V43.5847C106.378 44.1591 106.481 44.6126 106.687 44.9451C106.898 45.2716 107.167 45.4348 107.494 45.4348C107.826 45.4348 108.098 45.3502 108.31 45.1809C108.522 45.0116 108.667 44.7698 108.745 44.4554L108.918 44.4917C108.845 44.8605 108.679 45.1477 108.419 45.3532C108.159 45.5527 107.86 45.6525 107.521 45.6525C106.995 45.6525 106.557 45.4681 106.206 45.0993C105.861 44.7305 105.689 44.2287 105.689 43.5938C105.689 42.9529 105.864 42.4481 106.215 42.0793C106.566 41.7044 107.001 41.517 107.521 41.517ZM108.247 42.8501C108.247 42.1065 107.968 41.7346 107.412 41.7346C107.134 41.7346 106.895 41.8858 106.696 42.1881C106.502 42.4904 106.399 42.8743 106.387 43.3399H108.21C108.234 43.1343 108.247 42.9711 108.247 42.8501ZM116.938 39.8301V39.9934H116.512C116.428 39.9934 116.385 40.0297 116.385 40.1022V43.7752C116.385 44.404 116.204 44.8756 115.841 45.19C115.478 45.4983 114.992 45.6525 114.381 45.6525C113.77 45.6525 113.284 45.4983 112.921 45.19C112.558 44.8756 112.377 44.404 112.377 43.7752V40.1022C112.377 40.0297 112.334 39.9934 112.25 39.9934H111.823V39.8301H113.674V39.9934H113.247C113.163 39.9934 113.12 40.0297 113.12 40.1022V43.8387C113.12 44.3465 113.244 44.7244 113.492 44.9723C113.746 45.2142 114.088 45.3351 114.517 45.3351C114.952 45.3351 115.321 45.2142 115.623 44.9723C115.926 44.7244 116.077 44.3254 116.077 43.7752V40.1022C116.077 40.0297 116.035 39.9934 115.95 39.9934H115.524V39.8301H116.938ZM121.169 42.8955V45.2716C121.169 45.3442 121.212 45.3804 121.296 45.3804H121.723V45.5437H120.09V45.3804H120.389C120.474 45.3804 120.516 45.3442 120.516 45.2716V42.7776C120.516 42.4692 120.447 42.2425 120.308 42.0974C120.175 41.9463 119.996 41.8707 119.773 41.8707C119.458 41.8707 119.198 42.0581 118.993 42.433C118.787 42.8018 118.684 43.3338 118.684 44.0291V45.2535C118.684 45.3381 118.727 45.3804 118.811 45.3804H119.111V45.5437H117.478V45.3804H117.904C117.989 45.3804 118.031 45.3442 118.031 45.2716V41.916C118.031 41.8314 117.989 41.7891 117.904 41.7891H117.478V41.6258H117.923C118.285 41.6258 118.539 41.6077 118.684 41.5714V42.8048C118.89 41.9463 119.343 41.517 120.045 41.517C120.359 41.517 120.625 41.6319 120.843 41.8616C121.06 42.0853 121.169 42.4299 121.169 42.8955ZM123 45.2535V41.916C123 41.8314 122.958 41.7891 122.873 41.7891H122.447V41.6258H122.891C123.254 41.6258 123.508 41.6077 123.653 41.5714V45.2716C123.653 45.3442 123.695 45.3804 123.78 45.3804H124.206V45.5437H122.447V45.3804H122.873C122.958 45.3804 123 45.3381 123 45.2535ZM123.018 40.6282C122.939 40.5436 122.9 40.4408 122.9 40.3199C122.9 40.1989 122.939 40.0992 123.018 40.0206C123.103 39.9359 123.205 39.8936 123.326 39.8936C123.447 39.8936 123.547 39.9359 123.626 40.0206C123.71 40.0992 123.753 40.1989 123.753 40.3199C123.753 40.4408 123.71 40.5436 123.626 40.6282C123.547 40.7068 123.447 40.7461 123.326 40.7461C123.205 40.7461 123.103 40.7068 123.018 40.6282ZM125.299 47.2124V41.916C125.299 41.8314 125.257 41.7891 125.172 41.7891H124.746V41.6258H125.191C125.553 41.6258 125.807 41.6077 125.952 41.5714V42.8411C126.055 42.4058 126.218 42.0763 126.442 41.8525C126.672 41.6288 126.926 41.517 127.204 41.517C127.585 41.517 127.92 41.7074 128.211 42.0883C128.501 42.4692 128.646 42.9741 128.646 43.6029C128.646 44.2317 128.48 44.7305 128.147 45.0993C127.821 45.4681 127.391 45.6525 126.859 45.6525C126.527 45.6525 126.224 45.5709 125.952 45.4076V47.2124C125.952 47.297 125.995 47.3394 126.079 47.3394H126.687V47.5026H124.746V47.3394H125.172C125.257 47.3394 125.299 47.297 125.299 47.2124ZM127.957 43.621C127.957 43.0587 127.869 42.6264 127.694 42.3241C127.518 42.0158 127.295 41.8616 127.023 41.8616C126.757 41.8616 126.512 42.04 126.288 42.3967C126.064 42.7534 125.952 43.2673 125.952 43.9384V45.1628C126.218 45.3381 126.509 45.4258 126.823 45.4258C127.143 45.4258 127.413 45.2656 127.63 44.9451C127.848 44.6247 127.957 44.1833 127.957 43.621ZM131.203 41.517C131.621 41.517 131.95 41.656 132.192 41.9342C132.434 42.2123 132.555 42.6204 132.555 43.1585C132.555 43.2673 132.549 43.3882 132.537 43.5213H130.061V43.5847C130.061 44.1591 130.163 44.6126 130.369 44.9451C130.581 45.2716 130.85 45.4348 131.176 45.4348C131.509 45.4348 131.781 45.3502 131.992 45.1809C132.204 45.0116 132.349 44.7698 132.428 44.4554L132.6 44.4917C132.528 44.8605 132.361 45.1477 132.101 45.3532C131.841 45.5527 131.542 45.6525 131.203 45.6525C130.677 45.6525 130.239 45.4681 129.888 45.0993C129.544 44.7305 129.371 44.2287 129.371 43.5938C129.371 42.9529 129.547 42.4481 129.897 42.0793C130.248 41.7044 130.683 41.517 131.203 41.517ZM131.929 42.8501C131.929 42.1065 131.651 41.7346 131.095 41.7346C130.816 41.7346 130.578 41.8858 130.378 42.1881C130.185 42.4904 130.082 42.8743 130.07 43.3399H131.893C131.917 43.1343 131.929 42.9711 131.929 42.8501ZM134.554 43.0859L135.497 43.4396C135.72 43.5243 135.89 43.6543 136.005 43.8296C136.126 43.9989 136.186 44.1894 136.186 44.401C136.186 44.7275 136.056 45.0177 135.796 45.2716C135.536 45.5255 135.185 45.6525 134.744 45.6525C134.309 45.6525 133.898 45.5709 133.511 45.4076C133.547 45.2625 133.565 45.0086 133.565 44.6458V44.2831H133.728L133.792 44.7547C133.846 45.2081 134.164 45.4348 134.744 45.4348C135.004 45.4348 135.219 45.3562 135.388 45.199C135.563 45.0358 135.651 44.8514 135.651 44.6458C135.651 44.3617 135.479 44.1561 135.134 44.0291L134.191 43.6754C133.979 43.5968 133.819 43.4729 133.71 43.3036C133.601 43.1343 133.547 42.9439 133.547 42.7322C133.547 42.4118 133.662 42.1307 133.892 41.8888C134.121 41.6409 134.408 41.517 134.753 41.517C135.104 41.517 135.497 41.5986 135.932 41.7619C135.896 41.907 135.878 42.1609 135.878 42.5237V42.8864H135.714L135.651 42.4148C135.603 41.9795 135.327 41.7619 134.826 41.7619C134.602 41.7619 134.418 41.8314 134.272 41.9704C134.127 42.1095 134.055 42.2727 134.055 42.4602C134.055 42.7504 134.221 42.959 134.554 43.0859ZM138.132 43.0859L139.075 43.4396C139.299 43.5243 139.468 43.6543 139.583 43.8296C139.704 43.9989 139.764 44.1894 139.764 44.401C139.764 44.7275 139.634 45.0177 139.374 45.2716C139.114 45.5255 138.763 45.6525 138.322 45.6525C137.887 45.6525 137.476 45.5709 137.089 45.4076C137.125 45.2625 137.143 45.0086 137.143 44.6458V44.2831H137.306L137.37 44.7547C137.424 45.2081 137.742 45.4348 138.322 45.4348C138.582 45.4348 138.797 45.3562 138.966 45.199C139.141 45.0358 139.229 44.8514 139.229 44.6458C139.229 44.3617 139.057 44.1561 138.712 44.0291L137.769 43.6754C137.557 43.5968 137.397 43.4729 137.288 43.3036C137.179 43.1343 137.125 42.9439 137.125 42.7322C137.125 42.4118 137.24 42.1307 137.47 41.8888C137.699 41.6409 137.987 41.517 138.331 41.517C138.682 41.517 139.075 41.5986 139.51 41.7619C139.474 41.907 139.456 42.1609 139.456 42.5237V42.8864H139.292L139.229 42.4148C139.181 41.9795 138.906 41.7619 138.404 41.7619C138.18 41.7619 137.996 41.8314 137.851 41.9704C137.705 42.1095 137.633 42.2727 137.633 42.4602C137.633 42.7504 137.799 42.959 138.132 43.0859ZM141.039 45.0993C140.7 44.7305 140.531 44.2256 140.531 43.5847C140.531 42.9439 140.7 42.439 141.039 42.0702C141.377 41.7014 141.819 41.517 142.363 41.517C142.907 41.517 143.348 41.7014 143.687 42.0702C144.031 42.439 144.204 42.9439 144.204 43.5847C144.204 44.2256 144.031 44.7305 143.687 45.0993C143.348 45.4681 142.907 45.6525 142.363 45.6525C141.819 45.6525 141.377 45.4681 141.039 45.0993ZM141.546 42.2244C141.329 42.5569 141.22 43.0104 141.22 43.5847C141.22 44.1591 141.329 44.6156 141.546 44.9542C141.764 45.2867 142.036 45.453 142.363 45.453C142.689 45.453 142.961 45.2867 143.179 44.9542C143.403 44.6156 143.514 44.1591 143.514 43.5847C143.514 43.0104 143.403 42.5569 143.179 42.2244C142.961 41.8858 142.689 41.7165 142.363 41.7165C142.036 41.7165 141.764 41.8858 141.546 42.2244ZM147.163 43.4306L147.172 43.1132V42.7957C147.172 42.0883 146.943 41.7346 146.483 41.7346C146.284 41.7346 146.127 41.8042 146.012 41.9432C145.903 42.0763 145.848 42.2334 145.848 42.4148C145.848 42.5962 145.873 42.7534 145.921 42.8864C145.818 42.9771 145.676 43.0225 145.495 43.0225C145.313 43.0225 145.223 42.8743 145.223 42.5781C145.223 42.2818 145.337 42.0309 145.567 41.8253C145.803 41.6198 146.136 41.517 146.565 41.517C147.405 41.517 147.825 42.0128 147.825 43.0043V44.8635C147.825 45.19 147.916 45.3532 148.098 45.3532C148.182 45.3532 148.255 45.3139 148.315 45.2353C148.382 45.1567 148.415 45.066 148.415 44.9632C148.415 44.8605 148.406 44.7637 148.388 44.673L148.56 44.6458C148.584 44.7365 148.596 44.8363 148.596 44.9451C148.596 45.1628 148.53 45.3351 148.397 45.462C148.27 45.589 148.101 45.6525 147.889 45.6525C147.677 45.6525 147.505 45.5679 147.372 45.3986C147.239 45.2232 147.172 44.9632 147.172 44.6186V44.4554C147.07 44.8665 146.906 45.1688 146.683 45.3623C146.459 45.5558 146.199 45.6525 145.903 45.6525C145.613 45.6525 145.377 45.5618 145.195 45.3804C145.02 45.193 144.932 44.9481 144.932 44.6458C144.932 44.3375 145.074 44.0654 145.359 43.8296C145.643 43.5878 146.051 43.4668 146.583 43.4668C146.698 43.4668 146.891 43.482 147.163 43.5122V43.4306ZM146.111 45.3079C146.365 45.3079 146.592 45.1658 146.792 44.8816C146.997 44.5914 147.118 44.1863 147.154 43.6664C147.094 43.6603 147.009 43.6573 146.9 43.6573C146.417 43.6573 146.069 43.7601 145.857 43.9656C145.652 44.1652 145.549 44.3979 145.549 44.664C145.549 44.8393 145.6 44.9905 145.703 45.1174C145.806 45.2444 145.942 45.3079 146.111 45.3079ZM149.558 45.2535V39.9571C149.558 39.8725 149.515 39.8301 149.431 39.8301H149.004V39.6669H149.449C149.811 39.6669 150.065 39.6488 150.21 39.6125V45.2535C150.21 45.3381 150.253 45.3804 150.337 45.3804H150.764V45.5437H149.004V45.3804H149.431C149.515 45.3804 149.558 45.3381 149.558 45.2535ZM156.358 45.5981V44.8181C156.02 45.3744 155.618 45.6525 155.152 45.6525C154.693 45.6525 154.33 45.4681 154.064 45.0993C153.798 44.7305 153.665 44.2287 153.665 43.5938C153.665 42.959 153.834 42.4541 154.173 42.0793C154.511 41.7044 154.938 41.517 155.452 41.517C155.784 41.517 156.086 41.5986 156.358 41.7619V39.9571C156.358 39.8725 156.316 39.8301 156.232 39.8301H155.805V39.6669H156.25C156.612 39.6669 156.866 39.6488 157.011 39.6125V45.2535C157.011 45.3381 157.054 45.3804 157.138 45.3804H157.565V45.5437H157.12C156.758 45.5437 156.504 45.5618 156.358 45.5981ZM155.47 41.7891C155.161 41.7891 154.898 41.9463 154.681 42.2607C154.463 42.569 154.354 43.0013 154.354 43.5575C154.354 44.1138 154.442 44.5461 154.617 44.8544C154.799 45.1567 155.025 45.3079 155.297 45.3079C155.69 45.3079 156.044 45.0328 156.358 44.4826V42.043C156.08 41.8737 155.784 41.7891 155.47 41.7891ZM160.031 41.517C160.449 41.517 160.778 41.656 161.02 41.9342C161.262 42.2123 161.383 42.6204 161.383 43.1585C161.383 43.2673 161.377 43.3882 161.365 43.5213H158.889V43.5847C158.889 44.1591 158.992 44.6126 159.197 44.9451C159.409 45.2716 159.678 45.4348 160.004 45.4348C160.337 45.4348 160.609 45.3502 160.82 45.1809C161.032 45.0116 161.177 44.7698 161.256 44.4554L161.428 44.4917C161.356 44.8605 161.189 45.1477 160.929 45.3532C160.669 45.5527 160.37 45.6525 160.031 45.6525C159.505 45.6525 159.067 45.4681 158.716 45.0993C158.372 44.7305 158.2 44.2287 158.2 43.5938C158.2 42.9529 158.375 42.4481 158.726 42.0793C159.076 41.7044 159.512 41.517 160.031 41.517ZM160.757 42.8501C160.757 42.1065 160.479 41.7346 159.923 41.7346C159.645 41.7346 159.406 41.8858 159.206 42.1881C159.013 42.4904 158.91 42.8743 158.898 43.3399H160.721C160.745 43.1343 160.757 42.9711 160.757 42.8501ZM169.331 45.5437H167.472V45.3804H168.061L167.426 43.6301H165.431L164.796 45.3804H165.386V45.5437H164.016V45.3804H164.352C164.437 45.3804 164.494 45.3381 164.524 45.2535L166.52 39.8301H166.828L168.823 45.2535C168.853 45.3381 168.911 45.3804 168.995 45.3804H169.331V45.5437ZM166.438 40.9003L165.531 43.3762H167.336L166.438 40.9003ZM172.026 45.5981V44.8181C171.687 45.3744 171.285 45.6525 170.82 45.6525C170.36 45.6525 169.997 45.4681 169.731 45.0993C169.465 44.7305 169.332 44.2287 169.332 43.5938C169.332 42.959 169.501 42.4541 169.84 42.0793C170.179 41.7044 170.605 41.517 171.119 41.517C171.451 41.517 171.754 41.5986 172.026 41.7619V39.9571C172.026 39.8725 171.983 39.8301 171.899 39.8301H171.472V39.6669H171.917C172.28 39.6669 172.534 39.6488 172.679 39.6125V45.2535C172.679 45.3381 172.721 45.3804 172.806 45.3804H173.232V45.5437H172.788C172.425 45.5437 172.171 45.5618 172.026 45.5981ZM171.137 41.7891C170.829 41.7891 170.566 41.9463 170.348 42.2607C170.13 42.569 170.021 43.0013 170.021 43.5575C170.021 44.1138 170.109 44.5461 170.284 44.8544C170.466 45.1567 170.693 45.3079 170.965 45.3079C171.358 45.3079 171.711 45.0328 172.026 44.4826V42.043C171.748 41.8737 171.451 41.7891 171.137 41.7891ZM176.134 41.6258H177.286V41.7891H176.95C176.896 41.7891 176.853 41.8314 176.823 41.916L175.472 45.5437H175.227L173.876 41.916C173.846 41.8314 173.803 41.7891 173.749 41.7891H173.413V41.6258H174.955V41.7891H174.502L175.545 44.6549L176.597 41.7891H176.134V41.6258ZM178.068 45.0993C177.729 44.7305 177.56 44.2256 177.56 43.5847C177.56 42.9439 177.729 42.439 178.068 42.0702C178.406 41.7014 178.848 41.517 179.392 41.517C179.936 41.517 180.377 41.7014 180.716 42.0702C181.061 42.439 181.233 42.9439 181.233 43.5847C181.233 44.2256 181.061 44.7305 180.716 45.0993C180.377 45.4681 179.936 45.6525 179.392 45.6525C178.848 45.6525 178.406 45.4681 178.068 45.0993ZM178.576 42.2244C178.358 42.5569 178.249 43.0104 178.249 43.5847C178.249 44.1591 178.358 44.6156 178.576 44.9542C178.793 45.2867 179.065 45.453 179.392 45.453C179.718 45.453 179.99 45.2867 180.208 44.9542C180.432 44.6156 180.544 44.1591 180.544 43.5847C180.544 43.0104 180.432 42.5569 180.208 42.2244C179.99 41.8858 179.718 41.7165 179.392 41.7165C179.065 41.7165 178.793 41.8858 178.576 42.2244ZM183.812 41.7346C183.467 41.7346 183.186 41.9009 182.968 42.2334C182.757 42.5599 182.651 43.0104 182.651 43.5847C182.651 44.1591 182.754 44.6126 182.959 44.9451C183.171 45.2716 183.44 45.4348 183.766 45.4348C184.099 45.4348 184.371 45.3502 184.583 45.1809C184.794 45.0116 184.939 44.7698 185.018 44.4554L185.19 44.4917C185.118 44.8605 184.951 45.1477 184.691 45.3532C184.431 45.5527 184.132 45.6525 183.794 45.6525C183.268 45.6525 182.829 45.4681 182.479 45.0993C182.134 44.7305 181.962 44.2256 181.962 43.5847C181.962 42.9439 182.137 42.439 182.488 42.0702C182.838 41.7014 183.28 41.517 183.812 41.517C184.223 41.517 184.531 41.6107 184.737 41.7981C184.942 41.9795 185.045 42.2244 185.045 42.5327C185.045 42.9318 184.933 43.1313 184.71 43.1313C184.528 43.1313 184.383 43.0829 184.274 42.9862C184.359 42.8048 184.401 42.6174 184.401 42.4239C184.401 42.2244 184.35 42.0611 184.247 41.9342C184.15 41.8012 184.005 41.7346 183.812 41.7346ZM188.01 43.4306L188.019 43.1132V42.7957C188.019 42.0883 187.789 41.7346 187.33 41.7346C187.13 41.7346 186.973 41.8042 186.858 41.9432C186.749 42.0763 186.695 42.2334 186.695 42.4148C186.695 42.5962 186.719 42.7534 186.767 42.8864C186.665 42.9771 186.522 43.0225 186.341 43.0225C186.16 43.0225 186.069 42.8743 186.069 42.5781C186.069 42.2818 186.184 42.0309 186.414 41.8253C186.649 41.6198 186.982 41.517 187.411 41.517C188.252 41.517 188.672 42.0128 188.672 43.0043V44.8635C188.672 45.19 188.763 45.3532 188.944 45.3532C189.029 45.3532 189.101 45.3139 189.162 45.2353C189.228 45.1567 189.261 45.066 189.261 44.9632C189.261 44.8605 189.252 44.7637 189.234 44.673L189.406 44.6458C189.431 44.7365 189.443 44.8363 189.443 44.9451C189.443 45.1628 189.376 45.3351 189.243 45.462C189.116 45.589 188.947 45.6525 188.735 45.6525C188.524 45.6525 188.351 45.5679 188.218 45.3986C188.085 45.2232 188.019 44.9632 188.019 44.6186V44.4554C187.916 44.8665 187.753 45.1688 187.529 45.3623C187.305 45.5558 187.045 45.6525 186.749 45.6525C186.459 45.6525 186.223 45.5618 186.042 45.3804C185.866 45.193 185.779 44.9481 185.779 44.6458C185.779 44.3375 185.921 44.0654 186.205 43.8296C186.489 43.5878 186.897 43.4668 187.429 43.4668C187.544 43.4668 187.738 43.482 188.01 43.5122V43.4306ZM186.958 45.3079C187.212 45.3079 187.438 45.1658 187.638 44.8816C187.844 44.5914 187.964 44.1863 188.001 43.6664C187.94 43.6603 187.856 43.6573 187.747 43.6573C187.263 43.6573 186.915 43.7601 186.704 43.9656C186.498 44.1652 186.395 44.3979 186.395 44.664C186.395 44.8393 186.447 44.9905 186.55 45.1174C186.652 45.2444 186.788 45.3079 186.958 45.3079ZM191.791 41.7346C191.447 41.7346 191.166 41.9009 190.948 42.2334C190.736 42.5599 190.631 43.0104 190.631 43.5847C190.631 44.1591 190.733 44.6126 190.939 44.9451C191.151 45.2716 191.42 45.4348 191.746 45.4348C192.079 45.4348 192.351 45.3502 192.562 45.1809C192.774 45.0116 192.919 44.7698 192.998 44.4554L193.17 44.4917C193.097 44.8605 192.931 45.1477 192.671 45.3532C192.411 45.5527 192.112 45.6525 191.773 45.6525C191.247 45.6525 190.809 45.4681 190.458 45.0993C190.114 44.7305 189.941 44.2256 189.941 43.5847C189.941 42.9439 190.117 42.439 190.467 42.0702C190.818 41.7014 191.259 41.517 191.791 41.517C192.203 41.517 192.511 41.6107 192.717 41.7981C192.922 41.9795 193.025 42.2244 193.025 42.5327C193.025 42.9318 192.913 43.1313 192.689 43.1313C192.508 43.1313 192.363 43.0829 192.254 42.9862C192.339 42.8048 192.381 42.6174 192.381 42.4239C192.381 42.2244 192.33 42.0611 192.227 41.9342C192.13 41.8012 191.985 41.7346 191.791 41.7346ZM194.357 45.2535V41.916C194.357 41.8314 194.315 41.7891 194.23 41.7891H193.804V41.6258H194.248C194.611 41.6258 194.865 41.6077 195.01 41.5714V45.2716C195.01 45.3442 195.052 45.3804 195.137 45.3804H195.563V45.5437H193.804V45.3804H194.23C194.315 45.3804 194.357 45.3381 194.357 45.2535ZM194.375 40.6282C194.297 40.5436 194.257 40.4408 194.257 40.3199C194.257 40.1989 194.297 40.0992 194.375 40.0206C194.46 39.9359 194.563 39.8936 194.684 39.8936C194.805 39.8936 194.904 39.9359 194.983 40.0206C195.068 40.0992 195.11 40.1989 195.11 40.3199C195.11 40.4408 195.068 40.5436 194.983 40.6282C194.904 40.7068 194.805 40.7461 194.684 40.7461C194.563 40.7461 194.46 40.7068 194.375 40.6282ZM198.425 43.4306L198.434 43.1132V42.7957C198.434 42.0883 198.204 41.7346 197.745 41.7346C197.545 41.7346 197.388 41.8042 197.273 41.9432C197.164 42.0763 197.11 42.2334 197.11 42.4148C197.11 42.5962 197.134 42.7534 197.183 42.8864C197.08 42.9771 196.938 43.0225 196.756 43.0225C196.575 43.0225 196.484 42.8743 196.484 42.5781C196.484 42.2818 196.599 42.0309 196.829 41.8253C197.065 41.6198 197.397 41.517 197.827 41.517C198.667 41.517 199.087 42.0128 199.087 43.0043V44.8635C199.087 45.19 199.178 45.3532 199.359 45.3532C199.444 45.3532 199.516 45.3139 199.577 45.2353C199.643 45.1567 199.677 45.066 199.677 44.9632C199.677 44.8605 199.668 44.7637 199.649 44.673L199.822 44.6458C199.846 44.7365 199.858 44.8363 199.858 44.9451C199.858 45.1628 199.792 45.3351 199.658 45.462C199.532 45.589 199.362 45.6525 199.151 45.6525C198.939 45.6525 198.767 45.5679 198.634 45.3986C198.501 45.2232 198.434 44.9632 198.434 44.6186V44.4554C198.331 44.8665 198.168 45.1688 197.944 45.3623C197.721 45.5558 197.461 45.6525 197.164 45.6525C196.874 45.6525 196.638 45.5618 196.457 45.3804C196.282 45.193 196.194 44.9481 196.194 44.6458C196.194 44.3375 196.336 44.0654 196.62 43.8296C196.905 43.5878 197.313 43.4668 197.845 43.4668C197.96 43.4668 198.153 43.482 198.425 43.5122V43.4306ZM197.373 45.3079C197.627 45.3079 197.854 45.1658 198.053 44.8816C198.259 44.5914 198.38 44.1863 198.416 43.6664C198.356 43.6603 198.271 43.6573 198.162 43.6573C197.678 43.6573 197.331 43.7601 197.119 43.9656C196.914 44.1652 196.811 44.3979 196.811 44.664C196.811 44.8393 196.862 44.9905 196.965 45.1174C197.068 45.2444 197.204 45.3079 197.373 45.3079Z" fill="white"/>
</svg>
