<svg width="612" height="586" viewBox="0 0 612 586" fill="none" xmlns="http://www.w3.org/2000/svg">
<path d="M552.84 414.107L473.025 235.621C445.995 175.067 396.27 172.626 362.865 230.249L314.67 313.51C290.19 355.751 244.545 359.413 212.925 321.568L207.315 314.731C174.42 275.176 128.01 280.059 104.295 325.23L60.4349 409.468C29.5799 468.068 74.2049 537.167 142.545 537.167H467.925C534.225 537.167 578.85 472.463 552.84 414.107ZM177.735 195.333C198.024 195.333 217.482 187.616 231.829 173.879C246.175 160.142 254.235 141.51 254.235 122.083C254.235 102.656 246.175 84.0248 231.829 70.2878C217.482 56.5507 198.024 48.8333 177.735 48.8333C157.446 48.8333 137.988 56.5507 123.641 70.2878C109.295 84.0248 101.235 102.656 101.235 122.083C101.235 141.51 109.295 160.142 123.641 173.879C137.988 187.616 157.446 195.333 177.735 195.333Z" stroke="black" stroke-opacity="0.16" stroke-width="1.5" stroke-linecap="round" stroke-linejoin="round"/>
</svg>
