<svg width="29" height="29" viewBox="0 0 29 29" fill="none" xmlns="http://www.w3.org/2000/svg">
<path d="M16.1973 10.3521H12.0846C9.82263 10.3521 7.97192 12.2028 7.97192 14.4647V18.5774C7.97192 20.8394 9.82263 22.6901 12.0846 22.6901H16.1973C18.4592 22.6901 20.31 20.8394 20.31 18.5774V14.4647M14.1409 10.3521V22.6901M7.97192 16.5211H20.31" stroke="#C49112" stroke-width="1.5" stroke-linecap="round" stroke-linejoin="round"/>
<path d="M27.7324 12.3536C27.7324 10.734 26.6497 8.65942 25.3265 7.73588L17.0662 1.94038C15.1949 0.628692 12.1875 0.695615 10.3831 2.10099L3.17869 7.7225C1.97573 8.65942 1 10.6537 1 12.1662V22.0841C1 25.1893 3.52621 27.7324 6.62717 27.7324H22.1052C25.2062 27.7324 27.7324 25.1893 27.7324 22.0975V17.9483" stroke="#C49112" stroke-width="1.5" stroke-linecap="round" stroke-linejoin="round"/>
</svg>
