<svg width="31" height="30" viewBox="0 0 31 30" fill="none" xmlns="http://www.w3.org/2000/svg">
<g clip-path="url(#clip0_549_220)">
<path d="M1.43757 5.625L1.51257 7.25625C1.01788 7.9754 0.790968 8.84522 0.871317 9.71438L2.06569 22.8394C2.15036 23.7711 2.58024 24.6375 3.27094 25.2685C3.96163 25.8996 4.86326 26.2496 5.79882 26.25H17.3751V24.375H5.79882C5.33105 24.3746 4.88035 24.1993 4.53517 23.8836C4.19 23.5679 3.97529 23.1346 3.93319 22.6688L2.73882 9.54375C2.71537 9.28434 2.74624 9.0229 2.82944 8.77608C2.91263 8.52926 3.04634 8.30248 3.22204 8.1102C3.39774 7.91792 3.61157 7.76436 3.84991 7.6593C4.08824 7.55424 4.34585 7.49998 4.60632 7.5H26.3938C26.6543 7.49998 26.9119 7.55424 27.1502 7.6593C27.3886 7.76436 27.6024 7.91792 27.7781 8.1102C27.9538 8.30248 28.0875 8.52926 28.1707 8.77608C28.2539 9.0229 28.2848 9.28434 28.2613 9.54375L27.7626 15H29.6469L30.1269 9.71438C30.1741 9.19557 30.1126 8.67263 29.9465 8.1789C29.7803 7.68517 29.5131 7.23147 29.1619 6.84673C28.8106 6.46199 28.3831 6.15465 27.9065 5.9443C27.4299 5.73395 26.9148 5.62521 26.3938 5.625H18.9276C17.9331 5.62479 16.9794 5.22956 16.2763 4.52625L14.7238 2.97375C14.0207 2.27044 13.067 1.87521 12.0726 1.875H5.18757C4.193 1.875 3.23918 2.27009 2.53592 2.97335C1.83265 3.67661 1.43757 4.63044 1.43757 5.625ZM12.0726 3.75C12.5698 3.75011 13.0466 3.94772 13.3982 4.29938L14.7238 5.625H4.60632C4.15632 5.625 3.72507 5.70375 3.32569 5.85L3.31257 5.5875C3.32238 5.09675 3.52425 4.62941 3.87483 4.28585C4.2254 3.94229 4.69672 3.7499 5.18757 3.75H12.0726Z" fill="white"/>
<path d="M30.2263 19.0238C30.3136 19.1109 30.3829 19.2143 30.4302 19.3282C30.4774 19.4421 30.5017 19.5642 30.5017 19.6875C30.5017 19.8108 30.4774 19.9329 30.4302 20.0468C30.3829 20.1607 30.3136 20.2642 30.2263 20.3513L24.6013 25.9763C24.4255 26.152 24.1871 26.2508 23.9385 26.2508C23.6899 26.2508 23.4515 26.152 23.2757 25.9763L20.4632 23.1638C20.2872 22.988 20.1882 22.7495 20.188 22.5007C20.1878 22.2519 20.2865 22.0133 20.4623 21.8372C20.638 21.6612 20.8766 21.5622 21.1253 21.562C21.3741 21.5618 21.6128 21.6605 21.7888 21.8363L23.9376 23.9869L28.8988 19.0238C28.9859 18.9365 29.0894 18.8672 29.2033 18.8199C29.3172 18.7727 29.4393 18.7484 29.5626 18.7484C29.6859 18.7484 29.808 18.7727 29.9219 18.8199C30.0358 18.8672 30.1392 18.9365 30.2263 19.0238Z" fill="white"/>
</g>
<defs>
<clipPath id="clip0_549_220">
<rect width="30" height="30" fill="white" transform="translate(0.5)"/>
</clipPath>
</defs>
</svg>
