<svg width="31" height="31" viewBox="0 0 31 31" fill="none" xmlns="http://www.w3.org/2000/svg">
<path d="M17.0111 2.58331C10.7078 2.58331 5.60571 7.34956 5.60571 13.2266C5.60571 13.5625 5.61863 13.8854 5.65738 14.2083C6.80696 13.4591 8.18905 13.0329 9.68738 13.0329C13.614 13.0329 16.7915 16.0037 16.7915 19.6721C16.7915 21.2091 16.2232 22.63 15.2674 23.7537C15.8357 23.8312 16.417 23.87 17.0111 23.87L22.4232 27.0862C23.3403 27.6416 24.4899 26.8925 24.3607 25.8204L23.857 21.7387C26.6211 19.8012 28.4165 16.7141 28.4165 13.2266C28.4165 9.26123 26.0915 5.79956 22.6299 3.9654" stroke="#C49112" stroke-width="1.5" stroke-linecap="round" stroke-linejoin="round"/>
<path d="M5.65742 14.2083C6.807 13.4591 8.18909 13.0329 9.68742 13.0329C13.6141 13.0329 16.7916 16.0037 16.7916 19.6721C16.7916 21.2091 16.2233 22.63 15.2674 23.7537C13.9887 25.3037 11.9608 26.2983 9.68742 26.2983L6.31617 28.3004C5.74784 28.6491 5.0245 28.1712 5.102 27.5125L5.42492 24.9679C3.69408 23.7666 2.58325 21.8421 2.58325 19.6721C2.58325 19.2846 2.622 18.91 2.68659 18.5483" stroke="#C49112" stroke-width="1.5" stroke-linecap="round" stroke-linejoin="round"/>
</svg>
