<svg width="1439" height="300" viewBox="0 0 1439 300" fill="none" xmlns="http://www.w3.org/2000/svg">
<g filter="url(#filter0_d_412_352)">
<rect x="1442" y="291.214" width="73.518" height="74.5251" transform="rotate(180 1442 291.214)" fill="#7E7E7E" fill-opacity="0.14"/>
<rect x="1441.12" y="290.333" width="71.7571" height="72.7642" transform="rotate(180 1441.12 290.333)" stroke="white" stroke-opacity="0.05" stroke-width="1.76089"/>
<rect x="1370.5" y="291.214" width="74.5251" height="74.5251" transform="rotate(180 1370.5 291.214)" fill="#7E7E7E" fill-opacity="0.14"/>
<rect x="1369.62" y="290.333" width="72.7642" height="72.7642" transform="rotate(180 1369.62 290.333)" stroke="white" stroke-opacity="0.05" stroke-width="1.76089"/>
<rect x="1297.99" y="291.214" width="73.518" height="74.5251" transform="rotate(180 1297.99 291.214)" fill="#7E7E7E" fill-opacity="0.14"/>
<rect x="1297.1" y="290.333" width="71.7571" height="72.7642" transform="rotate(180 1297.1 290.333)" stroke="white" stroke-opacity="0.05" stroke-width="1.76089"/>
<path d="M1297.99 218.703H1224.47V144.178H1297.99V218.703Z" fill="#7E7E7E" fill-opacity="0.14"/>
<path d="M1297.1 217.822H1225.35V145.058H1297.1V217.822Z" stroke="white" stroke-opacity="0.05" stroke-width="1.76089"/>
<rect x="1297.99" y="146.192" width="73.518" height="73.518" transform="rotate(180 1297.99 146.192)" fill="#7E7E7E" fill-opacity="0.14"/>
<rect x="1297.1" y="145.311" width="71.7571" height="71.7571" transform="rotate(180 1297.1 145.311)" stroke="white" stroke-opacity="0.05" stroke-width="1.76089"/>
<rect x="1297.99" y="74.6882" width="73.518" height="73.518" transform="rotate(180 1297.99 74.6882)" fill="#7E7E7E" fill-opacity="0.14"/>
<rect x="1297.1" y="73.8078" width="71.7571" height="71.7571" transform="rotate(180 1297.1 73.8078)" stroke="white" stroke-opacity="0.05" stroke-width="1.76089"/>
<rect x="1226.48" y="218.703" width="73.518" height="74.5251" transform="rotate(180 1226.48 218.703)" fill="#7E7E7E" fill-opacity="0.14"/>
<rect x="1225.6" y="217.822" width="71.7571" height="72.7642" transform="rotate(180 1225.6 217.822)" stroke="white" stroke-opacity="0.05" stroke-width="1.76089"/>
<rect x="1226.48" y="146.192" width="73.518" height="73.518" transform="rotate(180 1226.48 146.192)" fill="#7E7E7E" fill-opacity="0.14"/>
<rect x="1225.6" y="145.311" width="71.7571" height="71.7571" transform="rotate(180 1225.6 145.311)" stroke="white" stroke-opacity="0.05" stroke-width="1.76089"/>
<rect x="1226.48" y="74.6882" width="73.518" height="73.518" transform="rotate(180 1226.48 74.6882)" fill="#7E7E7E" fill-opacity="0.14"/>
<rect x="1225.6" y="73.8078" width="71.7571" height="71.7571" transform="rotate(180 1225.6 73.8078)" stroke="white" stroke-opacity="0.05" stroke-width="1.76089"/>
<path d="M1409.77 218.752C1409.74 240.911 1392.55 258.973 1370.51 259.453M1400.2 218.739C1400.17 235.783 1387.43 249.393 1370.51 249.876" stroke="#C49E12" stroke-opacity="0.2" stroke-width="4.40223"/>
<path d="M1257.15 218.704C1257.18 240.607 1274.18 258.461 1295.96 258.935M1266.61 218.691C1266.64 235.538 1279.23 248.991 1295.96 249.469" stroke="#C49E12" stroke-opacity="0.2" stroke-width="4.40223"/>
<path d="M1336.23 289.15C1336.21 267.82 1319.46 250.433 1298 249.972M1326.91 289.162C1326.89 272.757 1314.48 259.656 1298 259.19" stroke="#687F9E" stroke-opacity="0.5" stroke-width="4.40223"/>
<path d="M1266.77 216.637C1266.74 194.185 1249.1 175.883 1226.49 175.398M1256.94 216.65C1256.92 199.381 1243.85 185.591 1226.49 185.101" stroke="#C49E12" stroke-opacity="0.2" stroke-width="4.40223"/>
<path d="M1184.18 144.125C1184.21 121.672 1201.85 103.37 1224.45 102.885M1194.01 144.138C1194.03 126.869 1207.1 113.078 1224.45 112.588" stroke="#C49E12" stroke-opacity="0.2" stroke-width="4.40223"/>
<path d="M1184.18 216.636C1184.21 194.184 1201.85 175.882 1224.45 175.396M1194.01 216.649C1194.03 199.38 1207.1 185.59 1224.45 185.1" stroke="#687F9E" stroke-opacity="0.5" stroke-width="4.40223"/>
<path d="M1259.67 74.681C1259.69 94.9116 1275.59 111.403 1295.95 111.84M1268.52 74.6693C1268.54 90.2296 1280.32 102.655 1295.95 103.097" stroke="#C49E12" stroke-opacity="0.2" stroke-width="4.40223"/>
<path d="M1259.67 72.6261C1259.7 52.3955 1275.59 35.9044 1295.96 35.4668M1268.52 72.6378C1268.54 57.0775 1280.32 44.6519 1295.96 44.2103" stroke="#C49E12" stroke-opacity="0.2" stroke-width="4.40223"/>
<path d="M1191.23 3.23958C1191.21 23.4702 1175.31 39.9613 1154.95 40.3989M1182.38 3.22791C1182.36 18.7882 1170.58 31.2139 1154.95 31.6554" stroke="#C49E12" stroke-opacity="0.2" stroke-width="4.40223"/>
<path d="M1335.25 218.703L1368.46 218.682L1368.48 251.847C1360.43 252.279 1356.53 250.805 1350.51 245.554C1350.51 245.554 1357.31 233.215 1356.76 230.749C1356.22 228.283 1341.25 237.063 1341.25 237.063C1337.57 231.401 1336.03 227.636 1335.25 218.703Z" fill="#C49E12" fill-opacity="0.2"/>
<path d="M1262.74 146.192L1295.95 146.171L1295.97 179.336C1287.92 179.768 1284.02 178.294 1278 173.043C1278 173.043 1284.8 160.704 1284.25 158.238C1283.71 155.772 1268.74 164.552 1268.74 164.552C1265.06 158.89 1263.52 155.125 1262.74 146.192Z" fill="#C49E12" fill-opacity="0.2"/>
<path d="M1259.72 144.157L1226.5 144.178L1226.48 111.013C1234.53 110.581 1238.43 112.055 1244.45 117.306C1244.45 117.306 1237.65 129.645 1238.2 132.111C1238.75 134.576 1253.71 125.797 1253.71 125.797C1257.39 131.459 1258.93 135.223 1259.72 144.157Z" fill="#C49E12" fill-opacity="0.2"/>
<path d="M1259.72 3.18441L1226.5 3.16352L1226.48 36.328C1234.53 36.7604 1238.43 35.286 1244.45 30.0353C1244.45 30.0353 1237.65 17.6965 1238.2 15.2307C1238.75 12.7649 1253.71 21.5444 1253.71 21.5444C1257.39 15.8826 1258.93 12.1179 1259.72 3.18441Z" fill="#C49E12" fill-opacity="0.2"/>
<path d="M1188.21 74.6883L1155 74.6674L1154.98 107.832C1163.03 108.264 1166.93 106.79 1172.95 101.539C1172.95 101.539 1166.15 89.2004 1166.7 86.7346C1167.24 84.2688 1182.21 93.0483 1182.21 93.0483C1185.89 87.3865 1187.43 83.6218 1188.21 74.6883Z" fill="#C49E12" fill-opacity="0.2"/>
<path d="M1406.58 289.179L1439.96 289.2L1439.99 255.861C1431.89 255.427 1427.97 256.909 1421.92 262.187C1421.92 262.187 1428.75 274.59 1428.2 277.069C1427.66 279.548 1412.61 270.722 1412.61 270.722C1408.91 276.414 1407.36 280.198 1406.58 289.179Z" fill="#C49E12" fill-opacity="0.2"/>
<rect x="1154.97" y="218.703" width="73.518" height="74.5251" transform="rotate(180 1154.97 218.703)" fill="#7E7E7E" fill-opacity="0.14"/>
<rect x="1154.09" y="217.822" width="71.7571" height="72.7642" transform="rotate(180 1154.09 217.822)" stroke="white" stroke-opacity="0.05" stroke-width="1.76089"/>
<rect x="1154.97" y="146.192" width="73.518" height="73.518" transform="rotate(180 1154.97 146.192)" fill="#7E7E7E" fill-opacity="0.14"/>
<rect x="1154.09" y="145.311" width="71.7571" height="71.7571" transform="rotate(180 1154.09 145.311)" stroke="white" stroke-opacity="0.05" stroke-width="1.76089"/>
<rect x="1154.97" y="74.6882" width="73.518" height="73.518" transform="rotate(180 1154.97 74.6882)" fill="#7E7E7E" fill-opacity="0.14"/>
<rect x="1154.09" y="73.8078" width="71.7571" height="71.7571" transform="rotate(180 1154.09 73.8078)" stroke="white" stroke-opacity="0.05" stroke-width="1.76089"/>
<rect x="1083.47" y="146.192" width="74.5251" height="73.518" transform="rotate(180 1083.47 146.192)" fill="#7E7E7E" fill-opacity="0.14"/>
<rect x="1082.59" y="145.311" width="72.7642" height="71.7571" transform="rotate(180 1082.59 145.311)" stroke="white" stroke-opacity="0.05" stroke-width="1.76089"/>
<rect x="1010.96" y="291.214" width="73.518" height="74.5251" transform="rotate(180 1010.96 291.214)" fill="#7E7E7E" fill-opacity="0.14"/>
<rect x="1010.08" y="290.333" width="71.7571" height="72.7642" transform="rotate(180 1010.08 290.333)" stroke="white" stroke-opacity="0.05" stroke-width="1.76089"/>
<path d="M1010.96 218.703H937.442V144.178H1010.96V218.703Z" fill="#7E7E7E" fill-opacity="0.14"/>
<path d="M1010.08 217.822H938.322V145.058H1010.08V217.822Z" stroke="white" stroke-opacity="0.05" stroke-width="1.76089"/>
<rect x="939.457" y="291.214" width="73.518" height="74.5251" transform="rotate(180 939.457 291.214)" fill="#7E7E7E" fill-opacity="0.14"/>
<rect x="938.576" y="290.333" width="71.7571" height="72.7642" transform="rotate(180 938.576 290.333)" stroke="white" stroke-opacity="0.05" stroke-width="1.76089"/>
<rect x="939.457" y="218.703" width="73.518" height="74.5251" transform="rotate(180 939.457 218.703)" fill="#7E7E7E" fill-opacity="0.14"/>
<rect x="938.576" y="217.822" width="71.7571" height="72.7642" transform="rotate(180 938.576 217.822)" stroke="white" stroke-opacity="0.05" stroke-width="1.76089"/>
<rect x="939.457" y="74.6882" width="73.518" height="73.518" transform="rotate(180 939.457 74.6882)" fill="#7E7E7E" fill-opacity="0.14"/>
<rect x="938.576" y="73.8078" width="71.7571" height="71.7571" transform="rotate(180 938.576 73.8078)" stroke="white" stroke-opacity="0.05" stroke-width="1.76089"/>
<path d="M1122.75 216.637C1122.72 194.479 1105.52 176.416 1083.48 175.936M1113.17 216.65C1113.15 199.607 1100.4 185.997 1083.48 185.513" stroke="#687F9E" stroke-opacity="0.5" stroke-width="4.40223"/>
<path d="M970.122 218.704C970.151 240.607 987.151 258.461 1008.93 258.935M979.588 218.691C979.61 235.538 992.208 248.991 1008.93 249.469" stroke="#C49E12" stroke-opacity="0.2" stroke-width="4.40223"/>
<path d="M979.74 216.637C979.711 194.185 962.072 175.883 939.47 175.398M969.918 216.65C969.895 199.381 956.824 185.591 939.469 185.101" stroke="#C49E12" stroke-opacity="0.2" stroke-width="4.40223"/>
<path d="M897.159 216.636C897.188 194.184 914.827 175.882 937.429 175.396M906.981 216.649C907.004 199.38 920.075 185.59 937.43 185.1" stroke="#687F9E" stroke-opacity="0.5" stroke-width="4.40223"/>
<path d="M1112.68 74.6862C1112.71 97.1383 1130.34 115.44 1152.95 115.926M1122.5 74.6733C1122.52 91.9422 1135.59 105.732 1152.95 106.222" stroke="#C49E12" stroke-opacity="0.2" stroke-width="4.40223"/>
<path d="M1051.24 144.125C1051.21 121.672 1033.57 103.37 1010.97 102.885M1041.42 144.138C1041.4 126.869 1028.33 113.078 1010.97 112.588" stroke="#C49E12" stroke-opacity="0.2" stroke-width="4.40223"/>
<path d="M904.208 3.23958C904.181 23.4702 888.287 39.9613 867.921 40.3989M895.357 3.22791C895.337 18.7882 883.559 31.2139 867.921 31.6554" stroke="#C49E12" stroke-opacity="0.2" stroke-width="4.40223"/>
<path d="M1122.72 72.6222C1122.7 50.7448 1105.51 32.9113 1083.48 32.438M1113.15 72.6349C1113.13 55.8079 1100.4 42.3707 1083.48 41.8933" stroke="#687F9E" stroke-opacity="0.5" stroke-width="4.40223"/>
<path d="M908.236 289.147C908.206 266.694 890.567 248.392 867.965 247.907M898.414 289.159C898.391 271.891 885.32 258.1 867.965 257.61" stroke="#687F9E" stroke-opacity="0.5" stroke-width="4.40223"/>
<path d="M1116.71 144.157L1083.49 144.178L1083.47 111.013C1091.52 110.581 1095.42 112.055 1101.44 117.306C1101.44 117.306 1094.64 129.645 1095.19 132.111C1095.74 134.576 1110.7 125.797 1110.7 125.797C1114.38 131.459 1115.92 135.223 1116.71 144.157Z" fill="#C49E12" fill-opacity="0.2"/>
<path d="M975.711 146.192L1008.92 146.171L1008.95 179.336C1000.89 179.768 996.993 178.294 990.974 173.043C990.974 173.043 997.772 160.704 997.226 158.238C996.68 155.772 981.712 164.552 981.712 164.552C978.033 158.89 976.493 155.125 975.711 146.192Z" fill="#C49E12" fill-opacity="0.2"/>
<path d="M972.691 3.18441L939.477 3.16352L939.456 36.328C947.509 36.7604 951.409 35.286 957.428 30.0353C957.428 30.0353 950.63 17.6965 951.176 15.2307C951.722 12.7649 966.69 21.5444 966.69 21.5444C970.369 15.8826 971.909 12.1179 972.691 3.18441Z" fill="#C49E12" fill-opacity="0.2"/>
<path d="M904.208 218.703L937.421 218.682L937.442 251.847C929.39 252.279 925.489 250.805 919.47 245.554C919.47 245.554 926.269 233.215 925.723 230.749C925.176 228.284 910.209 237.063 910.209 237.063C906.529 231.401 904.989 227.637 904.208 218.703Z" fill="#C49E12" fill-opacity="0.2"/>
<rect x="867.949" y="291.214" width="73.518" height="74.5251" transform="rotate(180 867.949 291.214)" fill="#7E7E7E" fill-opacity="0.14"/>
<rect x="867.069" y="290.333" width="71.7571" height="72.7642" transform="rotate(180 867.069 290.333)" stroke="white" stroke-opacity="0.05" stroke-width="1.76089"/>
<rect x="867.949" y="74.6882" width="73.518" height="73.518" transform="rotate(180 867.949 74.6882)" fill="#7E7E7E" fill-opacity="0.14"/>
<rect x="867.069" y="73.8078" width="71.7571" height="71.7571" transform="rotate(180 867.069 73.8078)" stroke="white" stroke-opacity="0.05" stroke-width="1.76089"/>
<rect x="796.445" y="291.214" width="74.5251" height="74.5251" transform="rotate(180 796.445 291.214)" fill="#7E7E7E" fill-opacity="0.14"/>
<rect x="795.565" y="290.333" width="72.7642" height="72.7642" transform="rotate(180 795.565 290.333)" stroke="white" stroke-opacity="0.05" stroke-width="1.76089"/>
<rect x="796.445" y="146.192" width="74.5251" height="73.518" transform="rotate(180 796.445 146.192)" fill="#7E7E7E" fill-opacity="0.14"/>
<rect x="795.565" y="145.311" width="72.7642" height="71.7571" transform="rotate(180 795.565 145.311)" stroke="white" stroke-opacity="0.05" stroke-width="1.76089"/>
<rect x="796.445" y="74.6882" width="74.5251" height="73.518" transform="rotate(180 796.445 74.6882)" fill="#7E7E7E" fill-opacity="0.14"/>
<rect x="795.565" y="73.8078" width="72.7642" height="71.7571" transform="rotate(180 795.565 73.8078)" stroke="white" stroke-opacity="0.05" stroke-width="1.76089"/>
<rect x="723.935" y="291.214" width="73.518" height="74.5251" transform="rotate(180 723.935 291.214)" fill="#7E7E7E" fill-opacity="0.14"/>
<rect x="723.054" y="290.333" width="71.7571" height="72.7642" transform="rotate(180 723.054 290.333)" stroke="white" stroke-opacity="0.05" stroke-width="1.76089"/>
<rect x="723.935" y="146.192" width="73.518" height="73.518" transform="rotate(180 723.935 146.192)" fill="#7E7E7E" fill-opacity="0.14"/>
<rect x="723.054" y="145.311" width="71.7571" height="71.7571" transform="rotate(180 723.054 145.311)" stroke="white" stroke-opacity="0.05" stroke-width="1.76089"/>
<rect x="723.935" y="74.6882" width="73.518" height="73.518" transform="rotate(180 723.935 74.6882)" fill="#7E7E7E" fill-opacity="0.14"/>
<rect x="723.054" y="73.8078" width="71.7571" height="71.7571" transform="rotate(180 723.054 73.8078)" stroke="white" stroke-opacity="0.05" stroke-width="1.76089"/>
<rect x="652.431" y="291.214" width="73.518" height="74.5251" transform="rotate(180 652.431 291.214)" fill="#7E7E7E" fill-opacity="0.14"/>
<rect x="651.551" y="290.333" width="71.7571" height="72.7642" transform="rotate(180 651.551 290.333)" stroke="white" stroke-opacity="0.05" stroke-width="1.76089"/>
<rect x="652.431" y="218.703" width="73.518" height="74.5251" transform="rotate(180 652.431 218.703)" fill="#7E7E7E" fill-opacity="0.14"/>
<rect x="651.551" y="217.822" width="71.7571" height="72.7642" transform="rotate(180 651.551 217.822)" stroke="white" stroke-opacity="0.05" stroke-width="1.76089"/>
<rect x="652.431" y="146.192" width="73.518" height="73.518" transform="rotate(180 652.431 146.192)" fill="#7E7E7E" fill-opacity="0.14"/>
<rect x="651.551" y="145.311" width="71.7571" height="71.7571" transform="rotate(180 651.551 145.311)" stroke="white" stroke-opacity="0.05" stroke-width="1.76089"/>
<rect x="652.431" y="74.6882" width="73.518" height="73.518" transform="rotate(180 652.431 74.6882)" fill="#7E7E7E" fill-opacity="0.14"/>
<rect x="651.551" y="73.8078" width="71.7571" height="71.7571" transform="rotate(180 651.551 73.8078)" stroke="white" stroke-opacity="0.05" stroke-width="1.76089"/>
<path d="M835.722 218.752C835.693 240.911 818.494 258.973 796.457 259.453M826.145 218.739C826.123 235.783 813.379 249.393 796.457 249.876" stroke="#C49E12" stroke-opacity="0.2" stroke-width="4.40223"/>
<path d="M683.097 218.704C683.125 240.607 700.125 258.461 721.908 258.935M692.563 218.691C692.585 235.538 705.182 248.991 721.908 249.469" stroke="#C49E12" stroke-opacity="0.2" stroke-width="4.40223"/>
<path d="M762.182 289.15C762.154 267.82 745.407 250.433 723.948 249.972M752.857 289.162C752.835 272.757 740.425 259.656 723.948 259.19" stroke="#687F9E" stroke-opacity="0.5" stroke-width="4.40223"/>
<path d="M610.133 144.125C610.163 121.672 627.802 103.37 650.404 102.885M619.955 144.138C619.978 126.869 633.049 113.078 650.404 112.588" stroke="#C49E12" stroke-opacity="0.2" stroke-width="4.40223"/>
<path d="M610.133 216.636C610.163 194.184 627.802 175.882 650.404 175.396M619.955 216.649C619.978 199.38 633.049 185.59 650.404 185.1" stroke="#687F9E" stroke-opacity="0.5" stroke-width="4.40223"/>
<path d="M764.218 144.125C764.189 121.672 746.55 103.37 723.948 102.885M754.396 144.138C754.373 126.869 741.302 113.078 723.947 112.588" stroke="#C49E12" stroke-opacity="0.2" stroke-width="4.40223"/>
<path d="M685.617 74.681C685.644 94.9116 701.538 111.403 721.903 111.84M694.468 74.6693C694.488 90.2296 706.266 102.655 721.904 103.097" stroke="#C49E12" stroke-opacity="0.2" stroke-width="4.40223"/>
<path d="M685.622 72.6261C685.649 52.3955 701.543 35.9044 721.909 35.4668M694.473 72.6378C694.493 57.0775 706.271 44.6519 721.909 44.2103" stroke="#C49E12" stroke-opacity="0.2" stroke-width="4.40223"/>
<path d="M617.182 3.23958C617.156 23.4702 601.262 39.9613 580.896 40.3989M608.332 3.22791C608.311 18.7882 596.534 31.2139 580.896 31.6554" stroke="#C49E12" stroke-opacity="0.2" stroke-width="4.40223"/>
<path d="M835.7 72.6222C835.671 50.7448 818.483 32.9113 796.459 32.438M826.129 72.6349C826.106 55.8079 813.37 42.3707 796.459 41.8933" stroke="#687F9E" stroke-opacity="0.5" stroke-width="4.40223"/>
<path d="M621.211 289.147C621.181 266.694 603.542 248.392 580.94 247.907M611.389 289.159C611.366 271.891 598.295 258.1 580.94 257.61" stroke="#687F9E" stroke-opacity="0.5" stroke-width="4.40223"/>
<path d="M761.196 218.703L794.41 218.682L794.431 251.847C786.378 252.279 782.478 250.805 776.459 245.554C776.459 245.554 783.257 233.215 782.711 230.749C782.165 228.283 767.197 237.063 767.197 237.063C763.518 231.401 761.978 227.636 761.196 218.703Z" fill="#C49E12" fill-opacity="0.2"/>
<path d="M761.196 72.653L794.41 72.6739L794.431 39.5094C786.378 39.077 782.478 40.5514 776.459 45.8021C776.459 45.8021 783.257 58.1409 782.711 60.6067C782.165 63.0725 767.197 54.293 767.197 54.293C763.518 59.9548 761.978 63.7195 761.196 72.653Z" fill="#C49E12" fill-opacity="0.2"/>
<path d="M685.665 144.157L652.452 144.178L652.431 111.013C660.483 110.581 664.384 112.055 670.403 117.306C670.403 117.306 663.604 129.645 664.151 132.111C664.697 134.576 679.664 125.797 679.664 125.797C683.344 131.459 684.884 135.223 685.665 144.157Z" fill="#C49E12" fill-opacity="0.2"/>
<path d="M685.665 3.18441L652.452 3.16352L652.431 36.328C660.483 36.7604 664.384 35.286 670.403 30.0353C670.403 30.0353 663.604 17.6965 664.151 15.2307C664.697 12.7649 679.664 21.5444 679.664 21.5444C683.344 15.8826 684.884 12.1179 685.665 3.18441Z" fill="#C49E12" fill-opacity="0.2"/>
<path d="M614.161 74.6883L580.947 74.6674L580.926 107.832C588.979 108.264 592.879 106.79 598.898 101.539C598.898 101.539 592.1 89.2004 592.646 86.7346C593.192 84.2688 608.16 93.0483 608.16 93.0483C611.839 87.3865 613.379 83.6218 614.161 74.6883Z" fill="#C49E12" fill-opacity="0.2"/>
<path d="M617.182 218.703L650.396 218.682L650.417 251.847C642.364 252.279 638.464 250.805 632.445 245.554C632.445 245.554 639.243 233.215 638.697 230.749C638.151 228.284 623.183 237.063 623.183 237.063C619.504 231.401 617.964 227.637 617.182 218.703Z" fill="#C49E12" fill-opacity="0.2"/>
<path d="M832.526 289.179L865.914 289.2L865.935 255.861C857.84 255.427 853.919 256.909 847.869 262.187C847.869 262.187 854.703 274.59 854.154 277.069C853.605 279.548 838.559 270.722 838.559 270.722C834.86 276.414 833.312 280.198 832.526 289.179Z" fill="#C49E12" fill-opacity="0.2"/>
<rect x="580.924" y="146.192" width="73.518" height="73.518" transform="rotate(180 580.924 146.192)" fill="#7E7E7E" fill-opacity="0.14"/>
<rect x="580.043" y="145.311" width="71.7571" height="71.7571" transform="rotate(180 580.043 145.311)" stroke="white" stroke-opacity="0.05" stroke-width="1.76089"/>
<rect x="580.924" y="74.6882" width="73.518" height="73.518" transform="rotate(180 580.924 74.6882)" fill="#7E7E7E" fill-opacity="0.14"/>
<rect x="580.043" y="73.8078" width="71.7571" height="71.7571" transform="rotate(180 580.043 73.8078)" stroke="white" stroke-opacity="0.05" stroke-width="1.76089"/>
<rect x="509.42" y="291.214" width="74.5251" height="74.5251" transform="rotate(180 509.42 291.214)" fill="#7E7E7E" fill-opacity="0.14"/>
<rect x="508.539" y="290.333" width="72.7642" height="72.7642" transform="rotate(180 508.539 290.333)" stroke="white" stroke-opacity="0.05" stroke-width="1.76089"/>
<rect x="509.42" y="146.192" width="74.5251" height="73.518" transform="rotate(180 509.42 146.192)" fill="#7E7E7E" fill-opacity="0.14"/>
<rect x="508.539" y="145.311" width="72.7642" height="71.7571" transform="rotate(180 508.539 145.311)" stroke="white" stroke-opacity="0.05" stroke-width="1.76089"/>
<rect x="509.42" y="74.6882" width="74.5251" height="73.518" transform="rotate(180 509.42 74.6882)" fill="#7E7E7E" fill-opacity="0.14"/>
<rect x="508.539" y="73.8078" width="72.7642" height="71.7571" transform="rotate(180 508.539 73.8078)" stroke="white" stroke-opacity="0.05" stroke-width="1.76089"/>
<rect x="436.909" y="291.214" width="73.518" height="74.5251" transform="rotate(180 436.909 291.214)" fill="#7E7E7E" fill-opacity="0.14"/>
<rect x="436.029" y="290.333" width="71.7571" height="72.7642" transform="rotate(180 436.029 290.333)" stroke="white" stroke-opacity="0.05" stroke-width="1.76089"/>
<rect x="436.909" y="146.192" width="73.518" height="73.518" transform="rotate(180 436.909 146.192)" fill="#7E7E7E" fill-opacity="0.14"/>
<rect x="436.029" y="145.311" width="71.7571" height="71.7571" transform="rotate(180 436.029 145.311)" stroke="white" stroke-opacity="0.05" stroke-width="1.76089"/>
<rect x="436.909" y="74.6882" width="73.518" height="73.518" transform="rotate(180 436.909 74.6882)" fill="#7E7E7E" fill-opacity="0.14"/>
<rect x="436.029" y="73.8078" width="71.7571" height="71.7571" transform="rotate(180 436.029 73.8078)" stroke="white" stroke-opacity="0.05" stroke-width="1.76089"/>
<rect x="365.405" y="291.214" width="73.518" height="74.5251" transform="rotate(180 365.405 291.214)" fill="#7E7E7E" fill-opacity="0.14"/>
<rect x="364.525" y="290.333" width="71.7571" height="72.7642" transform="rotate(180 364.525 290.333)" stroke="white" stroke-opacity="0.05" stroke-width="1.76089"/>
<rect x="365.405" y="74.6882" width="73.518" height="73.518" transform="rotate(180 365.405 74.6882)" fill="#7E7E7E" fill-opacity="0.14"/>
<rect x="364.525" y="73.8078" width="71.7571" height="71.7571" transform="rotate(180 364.525 73.8078)" stroke="white" stroke-opacity="0.05" stroke-width="1.76089"/>
<path d="M396.071 218.704C396.1 240.607 413.1 258.461 434.883 258.935M405.537 218.691C405.56 235.538 418.157 248.991 434.883 249.469" stroke="#C49E12" stroke-opacity="0.2" stroke-width="4.40223"/>
<path d="M475.158 289.15C475.129 267.82 458.382 250.433 436.923 249.972M465.832 289.162C465.81 272.757 453.4 259.656 436.923 259.19" stroke="#687F9E" stroke-opacity="0.5" stroke-width="4.40223"/>
<path d="M538.626 74.6862C538.656 97.1383 556.295 115.44 578.897 115.926M548.449 74.6733C548.471 91.9422 561.542 105.732 578.897 106.222" stroke="#C49E12" stroke-opacity="0.2" stroke-width="4.40223"/>
<path d="M477.193 144.125C477.163 121.672 459.524 103.37 436.922 102.885M467.371 144.138C467.348 126.869 454.277 113.078 436.922 112.588" stroke="#C49E12" stroke-opacity="0.2" stroke-width="4.40223"/>
<path d="M398.592 74.681C398.618 94.9116 414.512 111.403 434.878 111.84M407.442 74.6693C407.463 90.2296 419.24 102.655 434.878 103.097" stroke="#C49E12" stroke-opacity="0.2" stroke-width="4.40223"/>
<path d="M398.597 72.6261C398.624 52.3955 414.518 35.9044 434.883 35.4668M407.447 72.6378C407.468 57.0775 419.246 44.6519 434.883 44.2103" stroke="#C49E12" stroke-opacity="0.2" stroke-width="4.40223"/>
<path d="M330.157 3.23958C330.131 23.4702 314.237 39.9613 293.871 40.3989M321.307 3.22791C321.286 18.7882 309.509 31.2139 293.871 31.6554" stroke="#C49E12" stroke-opacity="0.2" stroke-width="4.40223"/>
<path d="M548.675 72.6222C548.646 50.7448 531.458 32.9113 509.435 32.438M539.104 72.6349C539.082 55.8079 526.345 42.3707 509.434 41.8933" stroke="#687F9E" stroke-opacity="0.5" stroke-width="4.40223"/>
<path d="M334.186 289.147C334.156 266.694 316.517 248.392 293.915 247.907M324.363 289.159C324.341 271.891 311.27 258.1 293.915 257.61" stroke="#687F9E" stroke-opacity="0.5" stroke-width="4.40223"/>
<path d="M474.171 218.703L507.385 218.682L507.406 251.847C499.354 252.279 495.453 250.805 489.434 245.554C489.434 245.554 496.232 233.215 495.686 230.749C495.14 228.283 480.172 237.063 480.172 237.063C476.493 231.401 474.953 227.636 474.171 218.703Z" fill="#C49E12" fill-opacity="0.2"/>
<path d="M542.655 144.157L509.441 144.178L509.42 111.013C517.473 110.581 521.373 112.055 527.392 117.306C527.392 117.306 520.594 129.645 521.14 132.111C521.686 134.576 536.654 125.797 536.654 125.797C540.333 131.459 541.873 135.223 542.655 144.157Z" fill="#C49E12" fill-opacity="0.2"/>
<path d="M474.171 72.653L507.385 72.6739L507.406 39.5094C499.354 39.077 495.453 40.5514 489.434 45.8021C489.434 45.8021 496.232 58.1409 495.686 60.6067C495.14 63.0725 480.172 54.293 480.172 54.293C476.493 59.9548 474.953 63.7195 474.171 72.653Z" fill="#C49E12" fill-opacity="0.2"/>
<path d="M398.64 144.157L365.426 144.178L365.405 111.013C373.457 110.581 377.358 112.055 383.377 117.306C383.377 117.306 376.579 129.645 377.125 132.111C377.671 134.576 392.639 125.797 392.639 125.797C396.318 131.459 397.858 135.223 398.64 144.157Z" fill="#C49E12" fill-opacity="0.2"/>
<path d="M398.64 3.18441L365.426 3.16352L365.405 36.328C373.457 36.7604 377.358 35.286 383.377 30.0353C383.377 30.0353 376.579 17.6965 377.125 15.2307C377.671 12.7649 392.639 21.5444 392.639 21.5444C396.318 15.8826 397.858 12.1179 398.64 3.18441Z" fill="#C49E12" fill-opacity="0.2"/>
<path d="M330.157 218.703L363.371 218.682L363.392 251.847C355.339 252.279 351.439 250.805 345.419 245.554C345.419 245.554 352.218 233.215 351.672 230.749C351.126 228.284 336.158 237.063 336.158 237.063C332.479 231.401 330.939 227.637 330.157 218.703Z" fill="#C49E12" fill-opacity="0.2"/>
<rect x="293.898" y="291.214" width="73.518" height="74.5251" transform="rotate(180 293.898 291.214)" fill="#7E7E7E" fill-opacity="0.14"/>
<rect x="293.018" y="290.333" width="71.7571" height="72.7642" transform="rotate(180 293.018 290.333)" stroke="white" stroke-opacity="0.05" stroke-width="1.76089"/>
<rect x="293.898" y="218.703" width="73.518" height="74.5251" transform="rotate(180 293.898 218.703)" fill="#7E7E7E" fill-opacity="0.14"/>
<rect x="293.018" y="217.822" width="71.7571" height="72.7642" transform="rotate(180 293.018 217.822)" stroke="white" stroke-opacity="0.05" stroke-width="1.76089"/>
<rect x="222.394" y="291.214" width="74.5251" height="74.5251" transform="rotate(180 222.394 291.214)" fill="#7E7E7E" fill-opacity="0.14"/>
<rect x="221.514" y="290.333" width="72.7642" height="72.7642" transform="rotate(180 221.514 290.333)" stroke="white" stroke-opacity="0.05" stroke-width="1.76089"/>
<rect x="222.394" y="218.703" width="74.5251" height="74.5251" transform="rotate(180 222.394 218.703)" fill="#7E7E7E" fill-opacity="0.14"/>
<rect x="221.514" y="217.822" width="72.7642" height="72.7642" transform="rotate(180 221.514 217.822)" stroke="white" stroke-opacity="0.05" stroke-width="1.76089"/>
<rect x="222.394" y="146.192" width="74.5251" height="73.518" transform="rotate(180 222.394 146.192)" fill="#7E7E7E" fill-opacity="0.14"/>
<rect x="221.514" y="145.311" width="72.7642" height="71.7571" transform="rotate(180 221.514 145.311)" stroke="white" stroke-opacity="0.05" stroke-width="1.76089"/>
<path d="M147.869 59.6565V1.17018H222.394" stroke="white" stroke-opacity="0.05" stroke-width="1.76089"/>
<rect x="149.883" y="291.214" width="73.518" height="74.5251" transform="rotate(180 149.883 291.214)" fill="#7E7E7E" fill-opacity="0.14"/>
<rect x="149.003" y="290.333" width="71.7571" height="72.7642" transform="rotate(180 149.003 290.333)" stroke="white" stroke-opacity="0.05" stroke-width="1.76089"/>
<path d="M149.883 218.703H76.3653V144.178H149.883V218.703Z" fill="#7E7E7E" fill-opacity="0.14"/>
<path d="M149.003 217.822H77.2458V145.058H149.003V217.822Z" stroke="white" stroke-opacity="0.05" stroke-width="1.76089"/>
<rect x="149.883" y="146.192" width="73.518" height="73.518" transform="rotate(180 149.883 146.192)" fill="#7E7E7E" fill-opacity="0.14"/>
<rect x="149.003" y="145.311" width="71.7571" height="71.7571" transform="rotate(180 149.003 145.311)" stroke="white" stroke-opacity="0.05" stroke-width="1.76089"/>
<rect x="149.883" y="74.6882" width="73.518" height="73.518" transform="rotate(180 149.883 74.6882)" fill="#7E7E7E" fill-opacity="0.14"/>
<rect x="149.003" y="73.8078" width="71.7571" height="71.7571" transform="rotate(180 149.003 73.8078)" stroke="white" stroke-opacity="0.05" stroke-width="1.76089"/>
<rect x="78.3799" y="291.214" width="73.518" height="74.5251" transform="rotate(180 78.3799 291.214)" fill="#7E7E7E" fill-opacity="0.14"/>
<rect x="77.4994" y="290.333" width="71.7571" height="72.7642" transform="rotate(180 77.4994 290.333)" stroke="white" stroke-opacity="0.05" stroke-width="1.76089"/>
<rect x="78.3799" y="218.703" width="73.518" height="74.5251" transform="rotate(180 78.3799 218.703)" fill="#7E7E7E" fill-opacity="0.14"/>
<rect x="77.4994" y="217.822" width="71.7571" height="72.7642" transform="rotate(180 77.4994 217.822)" stroke="white" stroke-opacity="0.05" stroke-width="1.76089"/>
<rect x="78.3799" y="146.192" width="73.518" height="73.518" transform="rotate(180 78.3799 146.192)" fill="#7E7E7E" fill-opacity="0.14"/>
<rect x="77.4994" y="145.311" width="71.7571" height="71.7571" transform="rotate(180 77.4994 145.311)" stroke="white" stroke-opacity="0.05" stroke-width="1.76089"/>
<rect x="78.3799" y="74.6882" width="73.518" height="73.518" transform="rotate(180 78.3799 74.6882)" fill="#7E7E7E" fill-opacity="0.14"/>
<rect x="77.4994" y="73.8078" width="71.7571" height="71.7571" transform="rotate(180 77.4994 73.8078)" stroke="white" stroke-opacity="0.05" stroke-width="1.76089"/>
<path d="M261.671 218.752C261.642 240.911 244.444 258.973 222.407 259.453M252.094 218.739C252.072 235.783 239.328 249.393 222.407 249.876" stroke="#C49E12" stroke-opacity="0.2" stroke-width="4.40223"/>
<path d="M261.671 216.637C261.642 194.479 244.444 176.416 222.407 175.936M252.094 216.65C252.072 199.607 239.328 185.997 222.407 185.513" stroke="#687F9E" stroke-opacity="0.5" stroke-width="4.40223"/>
<path d="M181.103 216.637C181.132 194.479 198.331 176.416 220.367 175.936M190.68 216.65C190.702 199.607 203.446 185.997 220.368 185.513" stroke="#C49E12" stroke-opacity="0.2" stroke-width="4.40223"/>
<path d="M109.045 218.704C109.074 240.607 126.074 258.461 147.856 258.936M118.511 218.692C118.533 235.538 131.131 248.991 147.856 249.469" stroke="#C49E12" stroke-opacity="0.2" stroke-width="4.40223"/>
<path d="M188.132 289.15C188.104 267.82 171.356 250.434 149.897 249.972M178.806 289.162C178.784 272.757 166.374 259.656 149.897 259.191" stroke="#687F9E" stroke-opacity="0.5" stroke-width="4.40223"/>
<path d="M118.664 216.638C118.634 194.186 100.995 175.884 78.3928 175.398M108.841 216.651C108.819 199.382 95.7477 185.592 78.3927 185.102" stroke="#C49E12" stroke-opacity="0.2" stroke-width="4.40223"/>
<path d="M36.0816 144.125C36.1112 121.673 53.7505 103.371 76.3525 102.885M45.9039 144.138C45.9267 126.869 58.9976 113.079 76.3527 112.589" stroke="#C49E12" stroke-opacity="0.2" stroke-width="4.40223"/>
<path d="M36.0816 216.636C36.1112 194.184 53.7505 175.882 76.3525 175.396M45.9039 216.649C45.9267 199.38 58.9976 185.59 76.3527 185.1" stroke="#687F9E" stroke-opacity="0.5" stroke-width="4.40223"/>
<path d="M190.167 144.125C190.138 121.673 172.498 103.371 149.896 102.885M180.345 144.138C180.322 126.869 167.251 113.079 149.896 112.589" stroke="#C49E12" stroke-opacity="0.2" stroke-width="4.40223"/>
<path d="M111.566 74.681C111.592 94.9116 127.486 111.403 147.852 111.84M120.416 74.6693C120.437 90.2296 132.214 102.655 147.852 103.097" stroke="#C49E12" stroke-opacity="0.2" stroke-width="4.40223"/>
<path d="M111.571 72.6264C111.598 52.3958 127.492 35.9047 147.857 35.467M120.421 72.6381C120.442 57.0778 132.219 44.6521 147.857 44.2106" stroke="#C49E12" stroke-opacity="0.2" stroke-width="4.40223"/>
<path d="M43.131 3.23983C43.1043 23.4704 27.2104 39.9615 6.84469 40.3992M34.2805 3.22815C34.26 18.7884 22.4824 31.2141 6.84453 31.6557" stroke="#C49E12" stroke-opacity="0.2" stroke-width="4.40223"/>
<path d="M47.1598 289.147C47.1302 266.694 29.491 248.392 6.88894 247.907M37.3375 289.159C37.3147 271.891 24.2438 258.1 6.88877 257.61" stroke="#687F9E" stroke-opacity="0.5" stroke-width="4.40223"/>
<path d="M187.145 218.703L220.359 218.682L220.38 251.847C212.327 252.279 208.427 250.805 202.408 245.554C202.408 245.554 209.206 233.215 208.66 230.749C208.114 228.283 193.146 237.063 193.146 237.063C189.467 231.401 187.927 227.636 187.145 218.703Z" fill="#C49E12" fill-opacity="0.2"/>
<path d="M183.118 146.192L149.904 146.171L149.883 179.336C157.936 179.768 161.836 178.294 167.855 173.043C167.855 173.043 161.057 160.704 161.603 158.238C162.149 155.772 177.117 164.552 177.117 164.552C180.796 158.89 182.336 155.125 183.118 146.192Z" fill="#C49E12" fill-opacity="0.2"/>
<path d="M114.634 146.192L147.848 146.171L147.869 179.336C139.816 179.768 135.916 178.294 129.897 173.043C129.897 173.043 136.695 160.704 136.149 158.238C135.603 155.772 120.635 164.552 120.635 164.552C116.956 158.89 115.416 155.125 114.634 146.192Z" fill="#C49E12" fill-opacity="0.2"/>
<path d="M111.614 144.157L78.4003 144.178L78.3794 111.013C86.4321 110.581 90.3324 112.055 96.3516 117.306C96.3516 117.306 89.5532 129.645 90.0992 132.111C90.6453 134.576 105.613 125.797 105.613 125.797C109.292 131.459 110.832 135.223 111.614 144.157Z" fill="#C49E12" fill-opacity="0.2"/>
<path d="M111.614 3.18465L78.4003 3.16376L78.3794 36.3282C86.4321 36.7606 90.3324 35.2863 96.3516 30.0355C96.3516 30.0355 89.5532 17.6967 90.0992 15.2309C90.6453 12.7651 105.613 21.5447 105.613 21.5447C109.292 15.8828 110.832 12.1181 111.614 3.18465Z" fill="#C49E12" fill-opacity="0.2"/>
<path d="M40.1103 74.6883L6.89639 74.6674L6.87553 107.832C14.9282 108.264 18.8285 106.79 24.8476 101.539C24.8476 101.539 18.0493 89.2004 18.5953 86.7346C19.1414 84.2688 34.1093 93.0483 34.1093 93.0483C37.7885 87.3865 39.3285 83.6218 40.1103 74.6883Z" fill="#C49E12" fill-opacity="0.2"/>
<path d="M43.1307 218.703L76.3446 218.682L76.3654 251.847C68.3128 252.279 64.4125 250.805 58.3933 245.554C58.3933 245.554 65.1917 233.215 64.6456 230.749C64.0996 228.284 49.1317 237.063 49.1317 237.063C45.4525 231.401 43.9124 227.637 43.1307 218.703Z" fill="#C49E12" fill-opacity="0.2"/>
<path d="M258.475 289.179L291.863 289.2L291.884 255.861C283.789 255.427 279.868 256.909 273.817 262.187C273.817 262.187 280.651 274.59 280.103 277.069C279.554 279.548 264.507 270.722 264.507 270.722C260.809 276.414 259.261 280.198 258.475 289.179Z" fill="#C49E12" fill-opacity="0.2"/>
</g>
<defs>
<filter id="filter0_d_412_352" x="0.861816" y="0.289795" width="1445.14" height="298.924" filterUnits="userSpaceOnUse" color-interpolation-filters="sRGB">
<feFlood flood-opacity="0" result="BackgroundImageFix"/>
<feColorMatrix in="SourceAlpha" type="matrix" values="0 0 0 0 0 0 0 0 0 0 0 0 0 0 0 0 0 0 127 0" result="hardAlpha"/>
<feOffset dy="4"/>
<feGaussianBlur stdDeviation="2"/>
<feComposite in2="hardAlpha" operator="out"/>
<feColorMatrix type="matrix" values="0 0 0 0 0 0 0 0 0 0 0 0 0 0 0 0 0 0 0.25 0"/>
<feBlend mode="normal" in2="BackgroundImageFix" result="effect1_dropShadow_412_352"/>
<feBlend mode="normal" in="SourceGraphic" in2="effect1_dropShadow_412_352" result="shape"/>
</filter>
</defs>
</svg>
