<svg width="834" height="410" viewBox="0 0 834 410" fill="none" xmlns="http://www.w3.org/2000/svg">
<rect x="822.863" y="235.883" width="118.265" height="118.265" transform="rotate(180 822.863 235.883)" stroke="white" stroke-opacity="0.05" stroke-width="1.76089"/>
<rect x="822.863" y="119.146" width="118.265" height="118.265" transform="rotate(180 822.863 119.146)" stroke="white" stroke-opacity="0.05" stroke-width="1.76089"/>
<rect x="706.126" y="472.646" width="119.909" height="119.909" transform="rotate(180 706.126 472.646)" stroke="white" stroke-opacity="0.05" stroke-width="1.76089"/>
<rect x="706.126" y="235.883" width="119.909" height="118.265" transform="rotate(180 706.126 235.883)" stroke="white" stroke-opacity="0.05" stroke-width="1.76089"/>
<rect x="706.126" y="119.146" width="119.909" height="118.265" transform="rotate(180 706.126 119.146)" stroke="white" stroke-opacity="0.05" stroke-width="1.76089"/>
<rect x="587.744" y="472.646" width="118.265" height="119.909" transform="rotate(180 587.744 472.646)" stroke="white" stroke-opacity="0.05" stroke-width="1.76089"/>
<rect x="587.744" y="235.883" width="118.265" height="118.265" transform="rotate(180 587.744 235.883)" stroke="white" stroke-opacity="0.05" stroke-width="1.76089"/>
<rect x="587.744" y="119.146" width="118.265" height="118.265" transform="rotate(180 587.744 119.146)" stroke="white" stroke-opacity="0.05" stroke-width="1.76089"/>
<rect x="471.007" y="472.646" width="118.265" height="119.909" transform="rotate(180 471.007 472.646)" stroke="white" stroke-opacity="0.05" stroke-width="1.76089"/>
<rect x="471.007" y="119.146" width="118.265" height="118.265" transform="rotate(180 471.007 119.146)" stroke="white" stroke-opacity="0.05" stroke-width="1.76089"/>
<path d="M521.952 355.147C521.999 390.906 549.754 420.055 585.316 420.829M537.407 355.127C537.443 382.63 558.009 404.594 585.316 405.375" stroke="#736750" stroke-opacity="0.1" stroke-width="4.40223"/>
<path d="M651.069 470.157C651.023 435.335 623.681 406.949 588.647 406.195M635.843 470.177C635.808 443.394 615.548 422.005 588.646 421.245" stroke="#736750" stroke-opacity="0.1" stroke-width="4.40223"/>
<path d="M754.688 120.022C754.737 156.678 783.535 186.558 820.435 187.351M770.724 120.001C770.762 148.195 792.101 170.708 820.435 171.508" stroke="#736750" stroke-opacity="0.1" stroke-width="4.40223"/>
<path d="M654.392 233.388C654.344 196.732 625.546 166.853 588.646 166.06M638.356 233.409C638.319 205.216 616.98 182.702 588.646 181.902" stroke="#736750" stroke-opacity="0.1" stroke-width="4.40223"/>
<path d="M526.068 120.014C526.111 153.043 552.06 179.966 585.309 180.681M540.517 119.995C540.55 145.399 559.779 165.685 585.309 166.406" stroke="#736750" stroke-opacity="0.1" stroke-width="4.40223"/>
<path d="M526.076 116.66C526.12 83.6311 552.068 56.7077 585.317 55.9931M540.525 116.679C540.559 91.2749 559.787 70.9887 585.317 70.2679" stroke="#736750" stroke-opacity="0.1" stroke-width="4.40223"/>
<path d="M414.341 3.37941C414.297 36.408 388.349 63.3314 355.1 64.0459M399.892 3.36034C399.858 28.7641 380.63 49.0503 355.1 49.7712" stroke="#736750" stroke-opacity="0.1" stroke-width="4.40223"/>
<path d="M771.093 116.653C771.046 80.9356 742.985 51.8205 707.029 51.0478M755.467 116.673C755.431 89.2017 734.638 67.2641 707.029 66.4846" stroke="#736750" stroke-opacity="0.1" stroke-width="4.40223"/>
<path d="M420.918 470.151C420.87 433.496 392.072 403.616 355.172 402.823M404.882 470.173C404.845 441.979 383.505 419.465 355.172 418.665" stroke="#736750" stroke-opacity="0.1" stroke-width="4.40223"/>
<path d="M649.459 355.145L703.684 355.111L703.718 409.256C690.571 409.962 684.204 407.555 674.377 398.982C674.377 398.982 685.476 378.838 684.584 374.812C683.693 370.787 659.256 385.12 659.256 385.12C653.25 375.876 650.735 369.73 649.459 355.145Z" fill="#736750" fill-opacity="0.1"/>
<path d="M761.265 233.441L707.04 233.475L707.006 179.33C720.153 178.624 726.521 181.031 736.348 189.604C736.348 189.604 725.249 209.748 726.14 213.774C727.031 217.799 751.468 203.466 751.468 203.466C757.475 212.709 759.989 218.856 761.265 233.441Z" fill="#736750" fill-opacity="0.1"/>
<path d="M649.459 116.703L703.684 116.737L703.718 62.5929C690.571 61.887 684.204 64.294 674.377 72.8664C674.377 72.8664 685.476 93.0108 684.584 97.0365C683.693 101.062 659.256 86.7286 659.256 86.7286C653.25 95.9722 650.735 102.118 649.459 116.703Z" fill="#736750" fill-opacity="0.1"/>
<path d="M526.146 233.441L471.921 233.475L471.887 179.33C485.033 178.624 491.401 181.031 501.228 189.604C501.228 189.604 490.129 209.748 491.02 213.774C491.912 217.799 516.349 203.466 516.349 203.466C522.355 212.709 524.869 218.856 526.146 233.441Z" fill="#736750" fill-opacity="0.1"/>
<path d="M526.146 3.28893L471.921 3.25482L471.887 57.3993C485.033 58.1052 491.401 55.6982 501.228 47.1258C501.228 47.1258 490.129 26.9814 491.02 22.9557C491.912 18.9301 516.349 33.2636 516.349 33.2636C522.355 24.02 524.869 17.8737 526.146 3.28893Z" fill="#736750" fill-opacity="0.1"/>
<path d="M414.34 355.145L468.565 355.111L468.599 409.256C455.453 409.962 449.085 407.555 439.258 398.982C439.258 398.982 450.357 378.838 449.466 374.812C448.574 370.787 424.137 385.12 424.137 385.12C418.131 375.876 415.616 369.73 414.34 355.145Z" fill="#736750" fill-opacity="0.1"/>
<rect x="354.265" y="472.646" width="118.265" height="119.909" transform="rotate(180 354.265 472.646)" stroke="white" stroke-opacity="0.05" stroke-width="1.76089"/>
<rect x="354.265" y="354.264" width="118.265" height="119.909" transform="rotate(180 354.265 354.264)" stroke="white" stroke-opacity="0.05" stroke-width="1.76089"/>
<rect x="237.527" y="472.646" width="119.909" height="119.909" transform="rotate(180 237.527 472.646)" stroke="white" stroke-opacity="0.05" stroke-width="1.76089"/>
<rect x="237.527" y="354.264" width="119.909" height="119.909" transform="rotate(180 237.527 354.264)" stroke="white" stroke-opacity="0.05" stroke-width="1.76089"/>
<rect x="237.527" y="235.882" width="119.909" height="118.265" transform="rotate(180 237.527 235.882)" stroke="white" stroke-opacity="0.05" stroke-width="1.76089"/>
<path d="M116.264 95V3H238.264" stroke="white" stroke-opacity="0.05" stroke-width="1.76089"/>
<rect x="119.145" y="472.646" width="118.265" height="119.909" transform="rotate(180 119.145 472.646)" stroke="white" stroke-opacity="0.05" stroke-width="1.76089"/>
<path d="M119.145 354.264H0.880569V234.355H119.145V354.264Z" stroke="white" stroke-opacity="0.05" stroke-width="1.76089"/>
<rect x="119.145" y="235.882" width="118.265" height="118.265" transform="rotate(180 119.145 235.882)" stroke="white" stroke-opacity="0.05" stroke-width="1.76089"/>
<rect x="119.383" y="119.12" width="118.239" height="115.239" transform="rotate(180 119.383 119.12)" stroke="white" stroke-opacity="0.05" stroke-width="1.76089"/>
<path d="M302.531 355.225C302.483 391.401 274.405 420.891 238.428 421.674M286.896 355.205C286.86 383.029 266.053 405.249 238.428 406.039" stroke="#736750" stroke-opacity="0.1" stroke-width="4.40223"/>
<path d="M302.531 351.772C302.483 315.596 274.405 286.106 238.428 285.323M286.896 351.793C286.86 323.968 266.053 301.748 238.428 300.958" stroke="#736750" stroke-opacity="0.1" stroke-width="4.40223"/>
<path d="M170.996 351.772C171.043 315.596 199.122 286.106 235.099 285.323M186.631 351.793C186.667 323.968 207.474 301.748 235.099 300.958" stroke="#736750" stroke-opacity="0.1" stroke-width="4.40223"/>
<path d="M53.3533 355.147C53.4005 390.906 81.1547 420.055 116.717 420.829M68.8078 355.127C68.8441 382.63 89.4103 404.594 116.717 405.375" stroke="#736750" stroke-opacity="0.1" stroke-width="4.40223"/>
<path d="M182.47 470.157C182.424 435.335 155.083 406.949 120.048 406.195M167.245 470.177C167.21 443.394 146.949 422.005 120.048 421.245" stroke="#736750" stroke-opacity="0.1" stroke-width="4.40223"/>
<path d="M69.0567 351.774C69.0083 315.118 40.2104 285.238 3.31022 284.445M53.0207 351.795C52.9835 323.601 31.6439 301.088 3.30995 300.288" stroke="#736750" stroke-opacity="0.1" stroke-width="4.40223"/>
<path d="M185.793 233.388C185.745 196.732 156.947 166.853 120.047 166.06M169.757 233.409C169.72 205.216 148.381 182.702 120.047 181.902" stroke="#736750" stroke-opacity="0.1" stroke-width="4.40223"/>
<path d="M57.4683 120.014C57.5118 153.043 83.4603 179.966 116.709 180.681M71.9176 119.995C71.9511 145.399 91.1792 165.685 116.71 166.406" stroke="#736750" stroke-opacity="0.1" stroke-width="4.40223"/>
<path d="M57.4771 116.66C57.5206 83.6311 83.4691 56.7077 116.718 55.9931M71.9264 116.679C71.9599 91.2749 91.188 70.9887 116.718 70.2679" stroke="#736750" stroke-opacity="0.1" stroke-width="4.40223"/>
<path d="M180.86 355.145L235.085 355.111L235.12 409.256C221.973 409.962 215.605 407.555 205.778 398.982C205.778 398.982 216.877 378.838 215.986 374.812C215.094 370.787 190.658 385.12 190.658 385.12C184.651 375.876 182.137 369.73 180.86 355.145Z" fill="#736750" fill-opacity="0.1"/>
<path d="M174.285 236.764L120.06 236.729L120.026 290.874C133.173 291.58 139.54 289.173 149.367 280.6C149.367 280.6 138.268 260.456 139.16 256.43C140.051 252.405 164.488 266.738 164.488 266.738C170.495 257.495 173.009 251.348 174.285 236.764Z" fill="#736750" fill-opacity="0.1"/>
<path d="M62.4781 236.764L116.703 236.729L116.737 290.874C103.59 291.58 97.2228 289.173 87.3959 280.6C87.3959 280.6 98.4949 260.456 97.6034 256.43C96.712 252.405 72.2752 266.738 72.2752 266.738C66.2686 257.495 63.7543 251.348 62.4781 236.764Z" fill="#736750" fill-opacity="0.1"/>
<path d="M57.5473 233.441L3.32222 233.475L3.28816 179.33C16.4349 178.624 22.8026 181.031 32.6295 189.604C32.6295 189.604 21.5305 209.748 22.422 213.774C23.3134 217.799 47.7501 203.466 47.7501 203.466C53.7568 212.709 56.2711 218.856 57.5473 233.441Z" fill="#736750" fill-opacity="0.1"/>
<path d="M57.5473 3.28893L3.32222 3.25482L3.28816 57.3993C16.4349 58.1052 22.8026 55.6982 32.6295 47.1258C32.6295 47.1258 21.5305 26.9814 22.422 22.9557C23.3134 18.9301 47.7501 33.2636 47.7501 33.2636C53.7568 24.02 56.2711 17.8737 57.5473 3.28893Z" fill="#736750" fill-opacity="0.1"/>
</svg>
