<svg width="1440" height="582" viewBox="0 0 1440 582" fill="none" xmlns="http://www.w3.org/2000/svg">
<g opacity="0.62">
<rect y="146.013" width="73.6203" height="73.6203" fill="#7E7E7E" fill-opacity="0.14"/>
<rect x="0.881672" y="146.894" width="71.857" height="71.857" stroke="white" stroke-opacity="0.05" stroke-width="1.76334"/>
<rect y="217.616" width="73.6203" height="73.6203" fill="#7E7E7E" fill-opacity="0.14"/>
<rect x="0.881672" y="218.498" width="71.857" height="71.857" stroke="white" stroke-opacity="0.05" stroke-width="1.76334"/>
<rect x="71.6033" y="73.401" width="74.6288" height="74.6288" fill="#7E7E7E" fill-opacity="0.14"/>
<rect x="72.4849" y="74.2826" width="72.8655" height="72.8655" stroke="white" stroke-opacity="0.05" stroke-width="1.76334"/>
<rect x="71.6033" y="146.013" width="74.6288" height="73.6203" fill="#7E7E7E" fill-opacity="0.14"/>
<rect x="72.4849" y="146.894" width="72.8655" height="71.857" stroke="white" stroke-opacity="0.05" stroke-width="1.76334"/>
<rect x="71.6033" y="217.616" width="74.6288" height="73.6203" fill="#7E7E7E" fill-opacity="0.14"/>
<rect x="72.4849" y="218.498" width="72.8655" height="71.857" stroke="white" stroke-opacity="0.05" stroke-width="1.76334"/>
<rect x="144.215" y="0.789154" width="73.6203" height="74.6288" fill="#7E7E7E" fill-opacity="0.14"/>
<rect x="145.097" y="1.67083" width="71.857" height="72.8655" stroke="white" stroke-opacity="0.05" stroke-width="1.76334"/>
<rect x="215.819" y="0.789154" width="73.6203" height="74.6288" fill="#7E7E7E" fill-opacity="0.14"/>
<rect x="216.7" y="1.67083" width="71.857" height="72.8655" stroke="white" stroke-opacity="0.05" stroke-width="1.76334"/>
<rect x="215.819" y="73.401" width="73.6203" height="74.6288" fill="#7E7E7E" fill-opacity="0.14"/>
<rect x="216.7" y="74.2826" width="71.857" height="72.8655" stroke="white" stroke-opacity="0.05" stroke-width="1.76334"/>
<path d="M112.952 75.4698C112.923 97.6591 95.7005 115.747 73.633 116.227M103.362 75.4571C103.34 92.5239 90.5776 106.153 73.633 106.637" stroke="#C49E12" stroke-opacity="0.2" stroke-width="4.40836"/>
<path d="M185.11 73.3997C185.081 51.4664 168.058 33.5871 146.245 33.1123M175.631 73.4122C175.608 56.5423 162.994 43.0707 146.245 42.5917" stroke="#C49E12" stroke-opacity="0.2" stroke-width="4.40836"/>
<path d="M258.175 75.4711C258.146 97.9545 240.482 116.282 217.848 116.768M248.339 75.4582C248.317 92.7512 235.227 106.56 217.848 107.051" stroke="#687F9E" stroke-opacity="0.5" stroke-width="4.40836"/>
<path d="M42.357 217.618C42.3274 195.135 24.6636 176.807 2.03007 176.321M32.521 217.631C32.4982 200.338 19.4091 186.529 2.0299 186.038" stroke="#C49E12" stroke-opacity="0.2" stroke-width="4.40836"/>
<path d="M103.875 148.083C103.905 170.566 121.569 188.894 144.202 189.38M113.711 148.07C113.734 165.363 126.823 179.172 144.203 179.663" stroke="#C49E12" stroke-opacity="0.2" stroke-width="4.40836"/>
<path d="M32.2944 219.685C32.3233 241.593 49.535 259.451 71.5892 259.925M41.8786 219.672C41.9009 236.523 54.6549 249.979 71.5893 250.457" stroke="#687F9E" stroke-opacity="0.5" stroke-width="4.40836"/>
<path d="M247.082 2.85929C247.112 25.3427 264.776 43.6701 287.409 44.1565M256.918 2.84631C256.941 20.1393 270.03 33.9486 287.409 34.4394" stroke="#687F9E" stroke-opacity="0.5" stroke-width="4.40836"/>
<path d="M110.935 146.013L144.195 146.034L144.216 112.823C136.152 112.39 132.246 113.866 126.219 119.124C126.219 119.124 133.026 131.48 132.48 133.95C131.933 136.419 116.944 127.627 116.944 127.627C113.26 133.297 111.718 137.067 110.935 146.013Z" fill="#C49E12" fill-opacity="0.2"/>
<path d="M38.3227 148.051L71.5828 148.03L71.6037 181.24C63.5399 181.673 59.6341 180.197 53.6066 174.939C53.6066 174.939 60.4144 162.583 59.8676 160.114C59.3208 157.645 44.332 166.436 44.332 166.436C40.6477 160.767 39.1055 156.997 38.3227 148.051Z" fill="#C49E12" fill-opacity="0.2"/>
<path d="M106.901 219.654L73.6413 219.633L73.6204 252.844C81.6842 253.277 85.59 251.8 91.6175 246.542C91.6175 246.542 84.8097 234.186 85.3565 231.717C85.9033 229.248 100.892 238.04 100.892 238.04C104.576 232.37 106.119 228.6 106.901 219.654Z" fill="#C49E12" fill-opacity="0.2"/>
<path d="M251.116 73.4008L217.856 73.4217L217.835 40.2111C225.899 39.778 229.805 41.2545 235.833 46.5125C235.833 46.5125 229.025 58.8685 229.572 61.3377C230.118 63.8069 245.107 55.0152 245.107 55.0152C248.791 60.6849 250.334 64.4549 251.116 73.4008Z" fill="#C49E12" fill-opacity="0.2"/>
<rect y="289.977" width="73.6203" height="74.6288" fill="#7E7E7E" fill-opacity="0.14"/>
<rect x="0.881672" y="290.859" width="71.857" height="72.8655" stroke="white" stroke-opacity="0.05" stroke-width="1.76334"/>
<rect x="71.6033" y="289.977" width="74.6288" height="74.6288" fill="#7E7E7E" fill-opacity="0.14"/>
<rect x="72.4849" y="290.859" width="72.8655" height="72.8655" stroke="white" stroke-opacity="0.05" stroke-width="1.76334"/>
<rect x="144.215" y="289.977" width="73.6203" height="74.6288" fill="#7E7E7E" fill-opacity="0.14"/>
<rect x="145.097" y="290.859" width="71.857" height="72.8655" stroke="white" stroke-opacity="0.05" stroke-width="1.76334"/>
<path d="M144.215 362.589H217.836V437.218H144.215V362.589Z" fill="#7E7E7E" fill-opacity="0.14"/>
<path d="M145.097 363.471H216.954V436.336H145.097V363.471Z" stroke="white" stroke-opacity="0.05" stroke-width="1.76334"/>
<rect x="144.215" y="435.201" width="73.6203" height="73.6203" fill="#7E7E7E" fill-opacity="0.14"/>
<rect x="145.097" y="436.083" width="71.857" height="71.857" stroke="white" stroke-opacity="0.05" stroke-width="1.76334"/>
<rect x="144.215" y="506.804" width="73.6203" height="73.6203" fill="#7E7E7E" fill-opacity="0.14"/>
<rect x="145.097" y="507.686" width="71.857" height="71.857" stroke="white" stroke-opacity="0.05" stroke-width="1.76334"/>
<rect x="215.819" y="362.589" width="73.6203" height="74.6288" fill="#7E7E7E" fill-opacity="0.14"/>
<rect x="216.7" y="363.471" width="71.857" height="72.8655" stroke="white" stroke-opacity="0.05" stroke-width="1.76334"/>
<rect x="215.819" y="435.201" width="73.6203" height="73.6203" fill="#7E7E7E" fill-opacity="0.14"/>
<rect x="216.7" y="436.083" width="71.857" height="71.857" stroke="white" stroke-opacity="0.05" stroke-width="1.76334"/>
<rect x="215.819" y="506.804" width="73.6203" height="73.6203" fill="#7E7E7E" fill-opacity="0.14"/>
<rect x="216.7" y="507.686" width="71.857" height="71.857" stroke="white" stroke-opacity="0.05" stroke-width="1.76334"/>
<path d="M32.272 362.54C32.3012 340.351 49.5236 322.263 71.5911 321.782M41.862 362.553C41.8845 345.486 54.6465 331.857 71.5911 331.372" stroke="#C49E12" stroke-opacity="0.2" stroke-width="4.40836"/>
<path d="M185.11 362.588C185.081 340.655 168.058 322.775 146.245 322.301M175.631 362.6C175.608 345.731 162.994 332.259 146.245 331.78" stroke="#C49E12" stroke-opacity="0.2" stroke-width="4.40836"/>
<path d="M105.914 292.044C105.942 313.403 122.713 330.815 144.202 331.277M115.253 292.032C115.274 308.46 127.701 321.579 144.202 322.045" stroke="#687F9E" stroke-opacity="0.5" stroke-width="4.40836"/>
<path d="M175.479 364.657C175.508 387.141 193.172 405.468 215.806 405.955M185.315 364.644C185.337 381.938 198.427 395.747 215.806 396.238" stroke="#C49E12" stroke-opacity="0.2" stroke-width="4.40836"/>
<path d="M258.175 437.271C258.146 459.755 240.482 478.082 217.848 478.568M248.339 437.258C248.317 454.551 235.227 468.361 217.848 468.851" stroke="#C49E12" stroke-opacity="0.2" stroke-width="4.40836"/>
<path d="M258.175 364.659C258.146 387.143 240.482 405.47 217.848 405.957M248.339 364.646C248.317 381.939 235.227 395.749 217.848 396.239" stroke="#687F9E" stroke-opacity="0.5" stroke-width="4.40836"/>
<path d="M182.586 506.812C182.559 486.553 166.643 470.039 146.249 469.601M173.723 506.823C173.703 491.241 161.909 478.798 146.249 478.356" stroke="#C49E12" stroke-opacity="0.2" stroke-width="4.40836"/>
<path d="M182.581 508.869C182.554 529.128 166.638 545.642 146.244 546.08M173.718 508.858C173.697 524.44 161.903 536.883 146.244 537.325" stroke="#C49E12" stroke-opacity="0.2" stroke-width="4.40836"/>
<path d="M251.116 578.352C251.143 558.094 267.059 541.58 287.453 541.141M259.979 578.364C260 562.782 271.794 550.339 287.453 549.897" stroke="#C49E12" stroke-opacity="0.2" stroke-width="4.40836"/>
<path d="M106.901 362.589L73.6413 362.61L73.6204 329.399C81.6842 328.966 85.59 330.443 91.6175 335.701C91.6175 335.701 84.8097 348.057 85.3565 350.526C85.9033 352.995 100.892 344.204 100.892 344.204C104.576 349.873 106.119 353.643 106.901 362.589Z" fill="#C49E12" fill-opacity="0.2"/>
<path d="M179.513 435.201L146.253 435.222L146.232 402.011C154.296 401.578 158.202 403.055 164.229 408.313C164.229 408.313 157.422 420.669 157.968 423.138C158.515 425.607 173.504 416.815 173.504 416.815C177.188 422.485 178.73 426.255 179.513 435.201Z" fill="#C49E12" fill-opacity="0.2"/>
<path d="M182.538 437.239L215.798 437.218L215.819 470.429C207.755 470.862 203.849 469.385 197.822 464.127C197.822 464.127 204.63 451.771 204.083 449.302C203.536 446.833 188.547 455.625 188.547 455.625C184.863 449.955 183.321 446.185 182.538 437.239Z" fill="#C49E12" fill-opacity="0.2"/>
<path d="M182.538 578.408L215.798 578.429L215.819 545.218C207.755 544.785 203.849 546.261 197.822 551.519C197.822 551.519 204.63 563.875 204.083 566.345C203.536 568.814 188.547 560.022 188.547 560.022C184.863 565.692 183.321 569.462 182.538 578.408Z" fill="#C49E12" fill-opacity="0.2"/>
<path d="M254.142 506.804L287.402 506.825L287.423 473.615C279.359 473.182 275.453 474.658 269.425 479.916C269.425 479.916 276.233 492.272 275.686 494.741C275.14 497.21 260.151 488.419 260.151 488.419C256.467 494.088 254.924 497.858 254.142 506.804Z" fill="#C49E12" fill-opacity="0.2"/>
<path d="M35.4725 292.015L2.03814 291.994L2.01713 325.379C10.1232 325.814 14.0494 324.33 20.1086 319.045C20.1086 319.045 13.2651 306.624 13.8147 304.142C14.3644 301.66 29.4317 310.497 29.4317 310.497C33.1353 304.798 34.6856 301.008 35.4725 292.015Z" fill="#C49E12" fill-opacity="0.2"/>
<rect x="287.425" y="362.589" width="73.6203" height="74.6288" fill="#7E7E7E" fill-opacity="0.14"/>
<rect x="288.307" y="363.471" width="71.857" height="72.8655" stroke="white" stroke-opacity="0.05" stroke-width="1.76334"/>
<rect x="287.425" y="435.201" width="73.6203" height="73.6203" fill="#7E7E7E" fill-opacity="0.14"/>
<rect x="288.307" y="436.083" width="71.857" height="71.857" stroke="white" stroke-opacity="0.05" stroke-width="1.76334"/>
<rect x="287.425" y="506.804" width="73.6203" height="73.6203" fill="#7E7E7E" fill-opacity="0.14"/>
<rect x="288.307" y="507.686" width="71.857" height="71.857" stroke="white" stroke-opacity="0.05" stroke-width="1.76334"/>
<rect x="359.028" y="435.201" width="74.6288" height="73.6203" fill="#7E7E7E" fill-opacity="0.14"/>
<rect x="359.91" y="436.083" width="72.8655" height="71.857" stroke="white" stroke-opacity="0.05" stroke-width="1.76334"/>
<rect x="431.64" y="289.977" width="73.6203" height="74.6288" fill="#7E7E7E" fill-opacity="0.14"/>
<rect x="432.522" y="290.859" width="71.857" height="72.8655" stroke="white" stroke-opacity="0.05" stroke-width="1.76334"/>
<path d="M431.64 362.589H505.26V437.218H431.64V362.589Z" fill="#7E7E7E" fill-opacity="0.14"/>
<path d="M432.522 363.471H504.379V436.336H432.522V363.471Z" stroke="white" stroke-opacity="0.05" stroke-width="1.76334"/>
<rect x="503.243" y="289.977" width="73.6203" height="74.6288" fill="#7E7E7E" fill-opacity="0.14"/>
<rect x="504.125" y="290.859" width="71.857" height="72.8655" stroke="white" stroke-opacity="0.05" stroke-width="1.76334"/>
<rect x="503.243" y="362.589" width="73.6203" height="74.6288" fill="#7E7E7E" fill-opacity="0.14"/>
<rect x="504.125" y="363.471" width="71.857" height="72.8655" stroke="white" stroke-opacity="0.05" stroke-width="1.76334"/>
<rect x="503.243" y="506.804" width="73.6203" height="73.6203" fill="#7E7E7E" fill-opacity="0.14"/>
<rect x="504.125" y="507.686" width="71.857" height="71.857" stroke="white" stroke-opacity="0.05" stroke-width="1.76334"/>
<path d="M319.697 364.658C319.726 386.847 336.949 404.935 359.016 405.416M329.287 364.645C329.31 381.712 342.072 395.341 359.016 395.826" stroke="#687F9E" stroke-opacity="0.5" stroke-width="4.40836"/>
<path d="M472.535 362.588C472.506 340.655 455.483 322.775 433.67 322.301M463.056 362.6C463.034 345.731 450.419 332.259 433.67 331.78" stroke="#C49E12" stroke-opacity="0.2" stroke-width="4.40836"/>
<path d="M462.903 364.657C462.933 387.141 480.597 405.468 503.23 405.955M472.739 364.644C472.762 381.938 485.851 395.747 503.231 396.238" stroke="#C49E12" stroke-opacity="0.2" stroke-width="4.40836"/>
<path d="M545.6 364.659C545.571 387.143 527.907 405.47 505.273 405.957M535.764 364.646C535.742 381.939 522.653 395.749 505.273 396.239" stroke="#687F9E" stroke-opacity="0.5" stroke-width="4.40836"/>
<path d="M329.782 506.806C329.752 484.323 312.089 465.996 289.455 465.509M319.946 506.819C319.923 489.526 306.834 475.717 289.455 475.226" stroke="#C49E12" stroke-opacity="0.2" stroke-width="4.40836"/>
<path d="M391.3 437.271C391.33 459.755 408.994 478.082 431.627 478.568M401.136 437.258C401.159 454.551 414.248 468.361 431.627 468.851" stroke="#C49E12" stroke-opacity="0.2" stroke-width="4.40836"/>
<path d="M538.541 578.352C538.568 558.094 554.484 541.58 574.878 541.141M547.404 578.364C547.424 562.782 559.218 550.339 574.878 549.897" stroke="#C49E12" stroke-opacity="0.2" stroke-width="4.40836"/>
<path d="M319.719 508.873C319.748 530.781 336.96 548.64 359.014 549.113M329.304 508.861C329.326 525.711 342.08 539.167 359.014 539.645" stroke="#687F9E" stroke-opacity="0.5" stroke-width="4.40836"/>
<path d="M534.507 292.048C534.536 314.531 552.2 332.858 574.834 333.345M544.343 292.035C544.366 309.328 557.455 323.137 574.834 323.628" stroke="#687F9E" stroke-opacity="0.5" stroke-width="4.40836"/>
<path d="M325.748 437.239L359.008 437.218L359.029 470.429C350.965 470.862 347.059 469.385 341.032 464.127C341.032 464.127 347.839 451.771 347.293 449.302C346.746 446.833 331.757 455.625 331.757 455.625C328.073 449.955 326.531 446.185 325.748 437.239Z" fill="#C49E12" fill-opacity="0.2"/>
<path d="M466.938 435.201L433.678 435.222L433.657 402.011C441.721 401.578 445.627 403.055 451.654 408.313C451.654 408.313 444.847 420.669 445.393 423.138C445.94 425.607 460.929 416.815 460.929 416.815C464.613 422.485 466.155 426.255 466.938 435.201Z" fill="#C49E12" fill-opacity="0.2"/>
<path d="M469.963 578.408L503.223 578.429L503.244 545.218C495.18 544.785 491.274 546.261 485.247 551.519C485.247 551.519 492.055 563.875 491.508 566.345C490.961 568.814 475.972 560.022 475.972 560.022C472.288 565.692 470.746 569.462 469.963 578.408Z" fill="#C49E12" fill-opacity="0.2"/>
<path d="M538.542 362.589L505.281 362.61L505.261 329.399C513.324 328.966 517.23 330.443 523.258 335.701C523.258 335.701 516.45 348.057 516.997 350.526C517.543 352.995 532.532 344.203 532.532 344.203C536.217 349.873 537.759 353.643 538.542 362.589Z" fill="#C49E12" fill-opacity="0.2"/>
<rect x="574.85" y="289.977" width="73.6203" height="74.6288" fill="#7E7E7E" fill-opacity="0.14"/>
<rect x="575.732" y="290.859" width="71.857" height="72.8655" stroke="white" stroke-opacity="0.05" stroke-width="1.76334"/>
<rect x="574.85" y="506.804" width="73.6203" height="73.6203" fill="#7E7E7E" fill-opacity="0.14"/>
<rect x="575.732" y="507.686" width="71.857" height="71.857" stroke="white" stroke-opacity="0.05" stroke-width="1.76334"/>
<rect x="646.453" y="289.977" width="74.6288" height="74.6288" fill="#7E7E7E" fill-opacity="0.14"/>
<rect x="647.335" y="290.859" width="72.8655" height="72.8655" stroke="white" stroke-opacity="0.05" stroke-width="1.76334"/>
<rect x="646.453" y="435.201" width="74.6288" height="73.6203" fill="#7E7E7E" fill-opacity="0.14"/>
<rect x="647.335" y="436.083" width="72.8655" height="71.857" stroke="white" stroke-opacity="0.05" stroke-width="1.76334"/>
<rect x="646.453" y="506.804" width="74.6288" height="73.6203" fill="#7E7E7E" fill-opacity="0.14"/>
<rect x="647.335" y="507.686" width="72.8655" height="71.857" stroke="white" stroke-opacity="0.05" stroke-width="1.76334"/>
<rect x="719.065" y="289.977" width="73.6203" height="74.6288" fill="#7E7E7E" fill-opacity="0.14"/>
<rect x="719.947" y="290.859" width="71.857" height="72.8655" stroke="white" stroke-opacity="0.05" stroke-width="1.76334"/>
<rect x="719.065" y="435.201" width="73.6203" height="73.6203" fill="#7E7E7E" fill-opacity="0.14"/>
<rect x="719.947" y="436.083" width="71.857" height="71.857" stroke="white" stroke-opacity="0.05" stroke-width="1.76334"/>
<rect x="719.065" y="506.804" width="73.6203" height="73.6203" fill="#7E7E7E" fill-opacity="0.14"/>
<rect x="719.947" y="507.686" width="71.857" height="71.857" stroke="white" stroke-opacity="0.05" stroke-width="1.76334"/>
<rect x="790.668" y="289.977" width="73.6203" height="74.6288" fill="#7E7E7E" fill-opacity="0.14"/>
<rect x="791.55" y="290.859" width="71.857" height="72.8655" stroke="white" stroke-opacity="0.05" stroke-width="1.76334"/>
<rect x="790.668" y="362.589" width="73.6203" height="74.6288" fill="#7E7E7E" fill-opacity="0.14"/>
<rect x="791.55" y="363.471" width="71.857" height="72.8655" stroke="white" stroke-opacity="0.05" stroke-width="1.76334"/>
<rect x="790.668" y="435.201" width="73.6203" height="73.6203" fill="#7E7E7E" fill-opacity="0.14"/>
<rect x="791.55" y="436.083" width="71.857" height="71.857" stroke="white" stroke-opacity="0.05" stroke-width="1.76334"/>
<rect x="790.668" y="506.804" width="73.6203" height="73.6203" fill="#7E7E7E" fill-opacity="0.14"/>
<rect x="791.55" y="507.686" width="71.857" height="71.857" stroke="white" stroke-opacity="0.05" stroke-width="1.76334"/>
<path d="M607.122 362.54C607.151 340.351 624.373 322.263 646.441 321.782M616.712 362.553C616.734 345.486 629.496 331.857 646.441 331.372" stroke="#C49E12" stroke-opacity="0.2" stroke-width="4.40836"/>
<path d="M759.96 362.588C759.931 340.655 742.907 322.775 721.095 322.301M750.481 362.6C750.458 345.731 737.844 332.259 721.095 331.78" stroke="#C49E12" stroke-opacity="0.2" stroke-width="4.40836"/>
<path d="M680.764 292.044C680.792 313.403 697.563 330.815 719.052 331.277M690.102 292.032C690.124 308.46 702.551 321.579 719.052 322.045" stroke="#687F9E" stroke-opacity="0.5" stroke-width="4.40836"/>
<path d="M833.025 437.271C832.996 459.755 815.332 478.082 792.698 478.568M823.189 437.258C823.166 454.551 810.077 468.361 792.698 468.851" stroke="#C49E12" stroke-opacity="0.2" stroke-width="4.40836"/>
<path d="M833.025 364.659C832.996 387.143 815.332 405.47 792.698 405.957M823.189 364.646C823.166 381.939 810.077 395.749 792.698 396.239" stroke="#687F9E" stroke-opacity="0.5" stroke-width="4.40836"/>
<path d="M678.725 437.271C678.755 459.755 696.419 478.082 719.052 478.568M688.561 437.258C688.584 454.551 701.673 468.361 719.052 468.851" stroke="#C49E12" stroke-opacity="0.2" stroke-width="4.40836"/>
<path d="M757.436 506.812C757.409 486.553 741.493 470.039 721.099 469.601M748.573 506.823C748.553 491.241 736.759 478.798 721.099 478.356" stroke="#C49E12" stroke-opacity="0.2" stroke-width="4.40836"/>
<path d="M757.431 508.869C757.404 529.128 741.488 545.642 721.094 546.08M748.568 508.858C748.547 524.44 736.753 536.883 721.094 537.325" stroke="#C49E12" stroke-opacity="0.2" stroke-width="4.40836"/>
<path d="M825.966 578.352C825.993 558.094 841.909 541.58 862.303 541.141M834.829 578.364C834.849 562.782 846.643 550.339 862.303 549.897" stroke="#C49E12" stroke-opacity="0.2" stroke-width="4.40836"/>
<path d="M607.144 508.873C607.173 530.781 624.385 548.64 646.439 549.113M616.728 508.861C616.751 525.711 629.505 539.167 646.439 539.645" stroke="#687F9E" stroke-opacity="0.5" stroke-width="4.40836"/>
<path d="M821.932 292.048C821.961 314.531 839.625 332.858 862.259 333.345M831.768 292.035C831.791 309.328 844.88 323.137 862.259 323.628" stroke="#687F9E" stroke-opacity="0.5" stroke-width="4.40836"/>
<path d="M681.751 362.589L648.491 362.61L648.471 329.399C656.534 328.966 660.44 330.443 666.468 335.701C666.468 335.701 659.66 348.057 660.207 350.526C660.753 352.995 675.742 344.204 675.742 344.204C679.427 349.873 680.969 353.643 681.751 362.589Z" fill="#C49E12" fill-opacity="0.2"/>
<path d="M681.751 508.842L648.491 508.821L648.471 542.032C656.534 542.465 660.44 540.989 666.468 535.731C666.468 535.731 659.66 523.375 660.207 520.905C660.753 518.436 675.742 527.228 675.742 527.228C679.427 521.558 680.969 517.788 681.751 508.842Z" fill="#C49E12" fill-opacity="0.2"/>
<path d="M757.388 437.239L790.648 437.218L790.669 470.429C782.605 470.862 778.699 469.385 772.672 464.127C772.672 464.127 779.48 451.771 778.933 449.302C778.386 446.833 763.397 455.625 763.397 455.625C759.713 449.955 758.171 446.185 757.388 437.239Z" fill="#C49E12" fill-opacity="0.2"/>
<path d="M757.388 578.408L790.648 578.429L790.669 545.218C782.605 544.785 778.699 546.261 772.672 551.519C772.672 551.519 779.48 563.875 778.933 566.345C778.386 568.814 763.397 560.022 763.397 560.022C759.713 565.692 758.171 569.462 757.388 578.408Z" fill="#C49E12" fill-opacity="0.2"/>
<path d="M828.991 506.804L862.252 506.825L862.272 473.615C854.209 473.182 850.303 474.658 844.275 479.916C844.275 479.916 851.083 492.272 850.536 494.741C849.989 497.21 835.001 488.419 835.001 488.419C831.316 494.088 829.774 497.858 828.991 506.804Z" fill="#C49E12" fill-opacity="0.2"/>
<path d="M825.966 362.589L792.706 362.61L792.685 329.399C800.749 328.966 804.655 330.443 810.682 335.701C810.682 335.701 803.875 348.057 804.421 350.526C804.968 352.995 819.957 344.203 819.957 344.203C823.641 349.873 825.184 353.643 825.966 362.589Z" fill="#C49E12" fill-opacity="0.2"/>
<path d="M610.323 292.015L576.888 291.994L576.867 325.379C584.973 325.814 588.9 324.33 594.959 319.045C594.959 319.045 588.115 306.624 588.665 304.142C589.214 301.66 604.282 310.497 604.282 310.497C607.985 304.798 609.536 301.008 610.323 292.015Z" fill="#C49E12" fill-opacity="0.2"/>
<rect x="862.275" y="435.201" width="73.6203" height="73.6203" fill="#7E7E7E" fill-opacity="0.14"/>
<rect x="863.157" y="436.083" width="71.857" height="71.857" stroke="white" stroke-opacity="0.05" stroke-width="1.76334"/>
<rect x="862.275" y="506.804" width="73.6203" height="73.6203" fill="#7E7E7E" fill-opacity="0.14"/>
<rect x="863.157" y="507.686" width="71.857" height="71.857" stroke="white" stroke-opacity="0.05" stroke-width="1.76334"/>
<rect x="933.878" y="289.977" width="74.6288" height="74.6288" fill="#7E7E7E" fill-opacity="0.14"/>
<rect x="934.76" y="290.859" width="72.8655" height="72.8655" stroke="white" stroke-opacity="0.05" stroke-width="1.76334"/>
<rect x="933.878" y="435.201" width="74.6288" height="73.6203" fill="#7E7E7E" fill-opacity="0.14"/>
<rect x="934.76" y="436.083" width="72.8655" height="71.857" stroke="white" stroke-opacity="0.05" stroke-width="1.76334"/>
<rect x="933.878" y="506.804" width="74.6288" height="73.6203" fill="#7E7E7E" fill-opacity="0.14"/>
<rect x="934.76" y="507.686" width="72.8655" height="71.857" stroke="white" stroke-opacity="0.05" stroke-width="1.76334"/>
<rect x="1006.49" y="289.977" width="73.6203" height="74.6288" fill="#7E7E7E" fill-opacity="0.14"/>
<rect x="1007.37" y="290.859" width="71.857" height="72.8655" stroke="white" stroke-opacity="0.05" stroke-width="1.76334"/>
<rect x="1006.49" y="435.201" width="73.6203" height="73.6203" fill="#7E7E7E" fill-opacity="0.14"/>
<rect x="1007.37" y="436.083" width="71.857" height="71.857" stroke="white" stroke-opacity="0.05" stroke-width="1.76334"/>
<rect x="1006.49" y="506.804" width="73.6203" height="73.6203" fill="#7E7E7E" fill-opacity="0.14"/>
<rect x="1007.37" y="507.686" width="71.857" height="71.857" stroke="white" stroke-opacity="0.05" stroke-width="1.76334"/>
<rect x="1078.09" y="289.977" width="73.6203" height="74.6288" fill="#7E7E7E" fill-opacity="0.14"/>
<rect x="1078.98" y="290.859" width="71.857" height="72.8655" stroke="white" stroke-opacity="0.05" stroke-width="1.76334"/>
<rect x="1078.09" y="506.804" width="73.6203" height="73.6203" fill="#7E7E7E" fill-opacity="0.14"/>
<rect x="1078.98" y="507.686" width="71.857" height="71.857" stroke="white" stroke-opacity="0.05" stroke-width="1.76334"/>
<path d="M1047.39 362.588C1047.36 340.655 1030.33 322.775 1008.52 322.301M1037.91 362.6C1037.88 345.731 1025.27 332.259 1008.52 331.78" stroke="#C49E12" stroke-opacity="0.2" stroke-width="4.40836"/>
<path d="M968.189 292.044C968.217 313.403 984.988 330.815 1006.48 331.277M977.527 292.032C977.549 308.46 989.976 321.579 1006.48 322.045" stroke="#687F9E" stroke-opacity="0.5" stroke-width="4.40836"/>
<path d="M904.632 506.806C904.602 484.323 886.938 465.996 864.305 465.509M894.796 506.819C894.773 489.526 881.684 475.717 864.305 475.226" stroke="#C49E12" stroke-opacity="0.2" stroke-width="4.40836"/>
<path d="M966.15 437.271C966.18 459.755 983.844 478.082 1006.48 478.568M975.986 437.258C976.009 454.551 989.098 468.361 1006.48 468.851" stroke="#C49E12" stroke-opacity="0.2" stroke-width="4.40836"/>
<path d="M1044.86 506.812C1044.83 486.553 1028.92 470.039 1008.52 469.601M1036 506.823C1035.98 491.241 1024.18 478.798 1008.52 478.356" stroke="#C49E12" stroke-opacity="0.2" stroke-width="4.40836"/>
<path d="M1044.86 508.869C1044.83 529.128 1028.91 545.642 1008.52 546.08M1035.99 508.858C1035.97 524.44 1024.18 536.883 1008.52 537.325" stroke="#C49E12" stroke-opacity="0.2" stroke-width="4.40836"/>
<path d="M1113.39 578.352C1113.42 558.094 1129.33 541.58 1149.73 541.141M1122.25 578.364C1122.27 562.782 1134.07 550.339 1149.73 549.897" stroke="#C49E12" stroke-opacity="0.2" stroke-width="4.40836"/>
<path d="M894.569 508.873C894.598 530.781 911.81 548.64 933.864 549.113M904.154 508.861C904.176 525.711 916.93 539.167 933.864 539.645" stroke="#687F9E" stroke-opacity="0.5" stroke-width="4.40836"/>
<path d="M1109.36 292.048C1109.39 314.531 1127.05 332.858 1149.68 333.345M1119.19 292.035C1119.22 309.328 1132.3 323.137 1149.68 323.628" stroke="#687F9E" stroke-opacity="0.5" stroke-width="4.40836"/>
<path d="M969.176 362.589L935.916 362.61L935.895 329.399C943.959 328.966 947.865 330.443 953.892 335.701C953.892 335.701 947.085 348.057 947.631 350.526C948.178 352.995 963.167 344.204 963.167 344.204C966.851 349.873 968.393 353.643 969.176 362.589Z" fill="#C49E12" fill-opacity="0.2"/>
<path d="M900.597 437.239L933.857 437.218L933.878 470.429C925.815 470.862 921.909 469.385 915.881 464.127C915.881 464.127 922.689 451.771 922.142 449.302C921.595 446.833 906.607 455.625 906.607 455.625C902.922 449.955 901.38 446.185 900.597 437.239Z" fill="#C49E12" fill-opacity="0.2"/>
<path d="M969.176 508.842L935.916 508.821L935.895 542.032C943.959 542.465 947.865 540.989 953.892 535.731C953.892 535.731 947.085 523.375 947.631 520.905C948.178 518.436 963.167 527.228 963.167 527.228C966.851 521.558 968.393 517.788 969.176 508.842Z" fill="#C49E12" fill-opacity="0.2"/>
<path d="M1044.81 437.239L1078.07 437.218L1078.09 470.429C1070.03 470.862 1066.12 469.385 1060.1 464.127C1060.1 464.127 1066.9 451.771 1066.36 449.302C1065.81 446.833 1050.82 455.625 1050.82 455.625C1047.14 449.955 1045.6 446.185 1044.81 437.239Z" fill="#C49E12" fill-opacity="0.2"/>
<path d="M1044.81 578.408L1078.07 578.429L1078.09 545.218C1070.03 544.785 1066.12 546.261 1060.1 551.519C1060.1 551.519 1066.9 563.875 1066.36 566.345C1065.81 568.814 1050.82 560.022 1050.82 560.022C1047.14 565.692 1045.6 569.462 1044.81 578.408Z" fill="#C49E12" fill-opacity="0.2"/>
<path d="M1113.39 362.589L1080.13 362.61L1080.11 329.399C1088.17 328.966 1092.08 330.443 1098.11 335.701C1098.11 335.701 1091.3 348.057 1091.85 350.526C1092.39 352.995 1107.38 344.203 1107.38 344.203C1111.07 349.873 1112.61 353.643 1113.39 362.589Z" fill="#C49E12" fill-opacity="0.2"/>
<rect x="1149.7" y="289.977" width="73.6203" height="74.6288" fill="#7E7E7E" fill-opacity="0.14"/>
<rect x="1150.58" y="290.859" width="71.857" height="72.8655" stroke="white" stroke-opacity="0.05" stroke-width="1.76334"/>
<rect x="1149.7" y="362.589" width="73.6203" height="74.6288" fill="#7E7E7E" fill-opacity="0.14"/>
<rect x="1150.58" y="363.471" width="71.857" height="72.8655" stroke="white" stroke-opacity="0.05" stroke-width="1.76334"/>
<rect x="1221.3" y="289.977" width="74.6288" height="74.6288" fill="#7E7E7E" fill-opacity="0.14"/>
<rect x="1222.19" y="290.859" width="72.8655" height="72.8655" stroke="white" stroke-opacity="0.05" stroke-width="1.76334"/>
<rect x="1221.3" y="362.589" width="74.6288" height="74.6288" fill="#7E7E7E" fill-opacity="0.14"/>
<rect x="1222.19" y="363.471" width="72.8655" height="72.8655" stroke="white" stroke-opacity="0.05" stroke-width="1.76334"/>
<rect x="1221.3" y="435.201" width="74.6288" height="73.6203" fill="#7E7E7E" fill-opacity="0.14"/>
<rect x="1222.19" y="436.083" width="72.8655" height="71.857" stroke="white" stroke-opacity="0.05" stroke-width="1.76334"/>
<path d="M1295.93 521.857V580.425H1221.3" stroke="white" stroke-opacity="0.05" stroke-width="1.76334"/>
<rect x="1293.92" y="289.977" width="73.6203" height="74.6288" fill="#7E7E7E" fill-opacity="0.14"/>
<rect x="1294.8" y="290.859" width="71.857" height="72.8655" stroke="white" stroke-opacity="0.05" stroke-width="1.76334"/>
<path d="M1293.92 362.589H1367.54V437.218H1293.92V362.589Z" fill="#7E7E7E" fill-opacity="0.14"/>
<path d="M1294.8 363.471H1366.65V436.336H1294.8V363.471Z" stroke="white" stroke-opacity="0.05" stroke-width="1.76334"/>
<rect x="1293.92" y="435.201" width="73.6203" height="73.6203" fill="#7E7E7E" fill-opacity="0.14"/>
<rect x="1294.8" y="436.083" width="71.857" height="71.857" stroke="white" stroke-opacity="0.05" stroke-width="1.76334"/>
<rect x="1293.92" y="506.804" width="73.6203" height="73.6203" fill="#7E7E7E" fill-opacity="0.14"/>
<rect x="1294.8" y="507.686" width="71.857" height="71.857" stroke="white" stroke-opacity="0.05" stroke-width="1.76334"/>
<rect x="1365.52" y="289.977" width="73.6203" height="74.6288" fill="#7E7E7E" fill-opacity="0.14"/>
<rect x="1366.4" y="290.859" width="71.857" height="72.8655" stroke="white" stroke-opacity="0.05" stroke-width="1.76334"/>
<rect x="1365.52" y="362.589" width="73.6203" height="74.6288" fill="#7E7E7E" fill-opacity="0.14"/>
<rect x="1366.4" y="363.471" width="71.857" height="72.8655" stroke="white" stroke-opacity="0.05" stroke-width="1.76334"/>
<rect x="1365.52" y="435.201" width="73.6203" height="73.6203" fill="#7E7E7E" fill-opacity="0.14"/>
<rect x="1366.4" y="436.083" width="71.857" height="71.857" stroke="white" stroke-opacity="0.05" stroke-width="1.76334"/>
<rect x="1365.52" y="506.804" width="73.6203" height="73.6203" fill="#7E7E7E" fill-opacity="0.14"/>
<rect x="1366.4" y="507.686" width="71.857" height="71.857" stroke="white" stroke-opacity="0.05" stroke-width="1.76334"/>
<path d="M1181.97 362.54C1182 340.351 1199.22 322.263 1221.29 321.782M1191.56 362.553C1191.58 345.486 1204.35 331.857 1221.29 331.372" stroke="#C49E12" stroke-opacity="0.2" stroke-width="4.40836"/>
<path d="M1181.97 364.658C1182 386.847 1199.22 404.935 1221.29 405.416M1191.56 364.645C1191.58 381.712 1204.35 395.341 1221.29 395.826" stroke="#687F9E" stroke-opacity="0.5" stroke-width="4.40836"/>
<path d="M1262.65 364.658C1262.62 386.847 1245.4 404.935 1223.33 405.416M1253.06 364.645C1253.04 381.712 1240.28 395.341 1223.33 395.826" stroke="#C49E12" stroke-opacity="0.2" stroke-width="4.40836"/>
<path d="M1334.81 362.588C1334.78 340.655 1317.76 322.775 1295.94 322.301M1325.33 362.6C1325.31 345.731 1312.69 332.259 1295.94 331.78" stroke="#C49E12" stroke-opacity="0.2" stroke-width="4.40836"/>
<path d="M1255.61 292.044C1255.64 313.403 1272.41 330.815 1293.9 331.277M1264.95 292.032C1264.97 308.46 1277.4 321.579 1293.9 322.045" stroke="#687F9E" stroke-opacity="0.5" stroke-width="4.40836"/>
<path d="M1325.18 364.658C1325.21 387.141 1342.87 405.468 1365.51 405.955M1335.01 364.645C1335.04 381.938 1348.13 395.747 1365.51 396.238" stroke="#C49E12" stroke-opacity="0.2" stroke-width="4.40836"/>
<path d="M1407.88 437.271C1407.85 459.755 1390.18 478.082 1367.55 478.569M1398.04 437.258C1398.02 454.551 1384.93 468.361 1367.55 468.851" stroke="#C49E12" stroke-opacity="0.2" stroke-width="4.40836"/>
<path d="M1407.88 364.659C1407.85 387.143 1390.18 405.47 1367.55 405.957M1398.04 364.646C1398.02 381.939 1384.93 395.749 1367.55 396.24" stroke="#687F9E" stroke-opacity="0.5" stroke-width="4.40836"/>
<path d="M1253.58 437.271C1253.61 459.755 1271.27 478.082 1293.9 478.569M1263.41 437.258C1263.43 454.551 1276.52 468.361 1293.9 468.851" stroke="#C49E12" stroke-opacity="0.2" stroke-width="4.40836"/>
<path d="M1332.29 506.812C1332.26 486.553 1316.34 470.039 1295.95 469.601M1323.42 506.823C1323.4 491.241 1311.61 478.799 1295.95 478.356" stroke="#C49E12" stroke-opacity="0.2" stroke-width="4.40836"/>
<path d="M1332.28 508.869C1332.25 529.128 1316.34 545.642 1295.94 546.08M1323.42 508.858C1323.4 524.44 1311.6 536.883 1295.94 537.325" stroke="#C49E12" stroke-opacity="0.2" stroke-width="4.40836"/>
<path d="M1400.82 578.352C1400.84 558.094 1416.76 541.58 1437.15 541.141M1409.68 578.364C1409.7 562.782 1421.49 550.339 1437.15 549.897" stroke="#C49E12" stroke-opacity="0.2" stroke-width="4.40836"/>
<path d="M1396.78 292.048C1396.81 314.531 1414.48 332.858 1437.11 333.345M1406.62 292.035C1406.64 309.328 1419.73 323.137 1437.11 323.628" stroke="#687F9E" stroke-opacity="0.5" stroke-width="4.40836"/>
<path d="M1256.6 362.589L1223.34 362.61L1223.32 329.399C1231.38 328.966 1235.29 330.443 1241.32 335.701C1241.32 335.701 1234.51 348.057 1235.06 350.526C1235.6 352.995 1250.59 344.204 1250.59 344.204C1254.28 349.873 1255.82 353.643 1256.6 362.589Z" fill="#C49E12" fill-opacity="0.2"/>
<path d="M1260.63 435.201L1293.89 435.222L1293.92 402.011C1285.85 401.578 1281.95 403.055 1275.92 408.313C1275.92 408.313 1282.73 420.669 1282.18 423.138C1281.63 425.607 1266.64 416.815 1266.64 416.815C1262.96 422.485 1261.42 426.255 1260.63 435.201Z" fill="#C49E12" fill-opacity="0.2"/>
<path d="M1329.21 435.201L1295.95 435.222L1295.93 402.011C1304 401.578 1307.9 403.055 1313.93 408.313C1313.93 408.313 1307.12 420.669 1307.67 423.138C1308.22 425.607 1323.2 416.815 1323.2 416.815C1326.89 422.485 1328.43 426.255 1329.21 435.201Z" fill="#C49E12" fill-opacity="0.2"/>
<path d="M1332.24 437.239L1365.5 437.218L1365.52 470.429C1357.46 470.862 1353.55 469.385 1347.52 464.127C1347.52 464.127 1354.33 451.771 1353.78 449.302C1353.24 446.833 1338.25 455.625 1338.25 455.625C1334.56 449.955 1333.02 446.185 1332.24 437.239Z" fill="#C49E12" fill-opacity="0.2"/>
<path d="M1332.24 578.408L1365.5 578.429L1365.52 545.218C1357.46 544.785 1353.55 546.261 1347.52 551.519C1347.52 551.519 1354.33 563.875 1353.78 566.345C1353.24 568.814 1338.25 560.022 1338.25 560.022C1334.56 565.692 1333.02 569.462 1332.24 578.408Z" fill="#C49E12" fill-opacity="0.2"/>
<path d="M1403.84 506.804L1437.1 506.825L1437.12 473.615C1429.06 473.182 1425.15 474.658 1419.13 479.916C1419.13 479.916 1425.93 492.272 1425.39 494.741C1424.84 497.21 1409.85 488.419 1409.85 488.419C1406.17 494.088 1404.62 497.858 1403.84 506.804Z" fill="#C49E12" fill-opacity="0.2"/>
<path d="M1400.82 362.589L1367.56 362.61L1367.54 329.399C1375.6 328.966 1379.51 330.443 1385.53 335.701C1385.53 335.701 1378.73 348.057 1379.27 350.526C1379.82 352.995 1394.81 344.203 1394.81 344.203C1398.49 349.873 1400.03 353.643 1400.82 362.589Z" fill="#C49E12" fill-opacity="0.2"/>
<path d="M1185.17 292.015L1151.74 291.994L1151.72 325.379C1159.82 325.814 1163.75 324.33 1169.81 319.045C1169.81 319.045 1162.97 306.624 1163.51 304.142C1164.06 301.66 1179.13 310.497 1179.13 310.497C1182.84 304.798 1184.39 301.008 1185.17 292.015Z" fill="#C49E12" fill-opacity="0.2"/>
<rect x="287.425" y="0.789154" width="73.6203" height="74.6288" fill="#7E7E7E" fill-opacity="0.14"/>
<rect x="288.307" y="1.67083" width="71.857" height="72.8655" stroke="white" stroke-opacity="0.05" stroke-width="1.76334"/>
<rect x="287.425" y="73.401" width="73.6203" height="74.6288" fill="#7E7E7E" fill-opacity="0.14"/>
<rect x="288.307" y="74.2826" width="71.857" height="72.8655" stroke="white" stroke-opacity="0.05" stroke-width="1.76334"/>
<rect x="359.028" y="0.789154" width="74.6288" height="74.6288" fill="#7E7E7E" fill-opacity="0.14"/>
<rect x="359.91" y="1.67083" width="72.8655" height="72.8655" stroke="white" stroke-opacity="0.05" stroke-width="1.76334"/>
<rect x="359.028" y="73.401" width="74.6288" height="74.6288" fill="#7E7E7E" fill-opacity="0.14"/>
<rect x="359.91" y="74.2826" width="72.8655" height="72.8655" stroke="white" stroke-opacity="0.05" stroke-width="1.76334"/>
<rect x="431.64" y="0.789154" width="73.6203" height="74.6288" fill="#7E7E7E" fill-opacity="0.14"/>
<rect x="432.522" y="1.67083" width="71.857" height="72.8655" stroke="white" stroke-opacity="0.05" stroke-width="1.76334"/>
<path d="M431.64 73.401H505.26V148.03H431.64V73.401Z" fill="#7E7E7E" fill-opacity="0.14"/>
<path d="M432.522 74.2826H504.379V147.148H432.522V74.2826Z" stroke="white" stroke-opacity="0.05" stroke-width="1.76334"/>
<rect x="503.243" y="0.789154" width="73.6203" height="74.6288" fill="#7E7E7E" fill-opacity="0.14"/>
<rect x="504.125" y="1.67083" width="71.857" height="72.8655" stroke="white" stroke-opacity="0.05" stroke-width="1.76334"/>
<rect x="503.243" y="73.401" width="73.6203" height="74.6288" fill="#7E7E7E" fill-opacity="0.14"/>
<rect x="504.125" y="74.2826" width="71.857" height="72.8655" stroke="white" stroke-opacity="0.05" stroke-width="1.76334"/>
<rect x="503.243" y="146.013" width="73.6203" height="73.6203" fill="#7E7E7E" fill-opacity="0.14"/>
<rect x="504.125" y="146.894" width="71.857" height="71.857" stroke="white" stroke-opacity="0.05" stroke-width="1.76334"/>
<rect x="503.243" y="217.616" width="73.6203" height="73.6203" fill="#7E7E7E" fill-opacity="0.14"/>
<rect x="504.125" y="218.498" width="71.857" height="71.857" stroke="white" stroke-opacity="0.05" stroke-width="1.76334"/>
<path d="M319.697 73.3517C319.726 51.1625 336.949 33.0744 359.016 32.594M329.287 73.3644C329.31 56.2976 342.072 42.6687 359.016 42.1841" stroke="#C49E12" stroke-opacity="0.2" stroke-width="4.40836"/>
<path d="M319.697 75.4698C319.726 97.6591 336.949 115.747 359.016 116.227M329.287 75.4571C329.31 92.5239 342.072 106.153 359.016 106.637" stroke="#687F9E" stroke-opacity="0.5" stroke-width="4.40836"/>
<path d="M400.377 75.4698C400.348 97.6591 383.126 115.747 361.058 116.227M390.787 75.4571C390.765 92.5239 378.003 106.153 361.058 106.637" stroke="#C49E12" stroke-opacity="0.2" stroke-width="4.40836"/>
<path d="M472.535 73.3997C472.506 51.4664 455.483 33.5871 433.67 33.1123M463.056 73.4122C463.034 56.5423 450.419 43.0707 433.67 42.5917" stroke="#C49E12" stroke-opacity="0.2" stroke-width="4.40836"/>
<path d="M393.339 2.85599C393.367 24.2152 410.138 41.6262 431.627 42.0883M402.677 2.84367C402.699 19.272 415.126 32.3908 431.627 32.857" stroke="#687F9E" stroke-opacity="0.5" stroke-width="4.40836"/>
<path d="M462.903 75.4692C462.933 97.9526 480.597 116.28 503.23 116.766M472.739 75.4562C472.762 92.7492 485.851 106.559 503.231 107.049" stroke="#C49E12" stroke-opacity="0.2" stroke-width="4.40836"/>
<path d="M545.6 148.083C545.571 170.566 527.907 188.894 505.273 189.38M535.764 148.07C535.742 165.363 522.653 179.172 505.273 179.663" stroke="#C49E12" stroke-opacity="0.2" stroke-width="4.40836"/>
<path d="M545.6 75.4711C545.571 97.9545 527.907 116.282 505.273 116.768M535.764 75.4582C535.742 92.7512 522.653 106.56 505.273 107.051" stroke="#687F9E" stroke-opacity="0.5" stroke-width="4.40836"/>
<path d="M538.541 289.164C538.568 268.905 554.484 252.391 574.878 251.953M547.404 289.176C547.424 273.594 559.218 261.151 574.878 260.709" stroke="#C49E12" stroke-opacity="0.2" stroke-width="4.40836"/>
<path d="M534.507 2.85929C534.536 25.3427 552.2 43.6701 574.834 44.1565M544.343 2.84631C544.366 20.1393 557.455 33.9486 574.834 34.4394" stroke="#687F9E" stroke-opacity="0.5" stroke-width="4.40836"/>
<path d="M394.326 73.4009L361.066 73.4218L361.045 40.2112C369.109 39.7782 373.015 41.2546 379.043 46.5126C379.043 46.5126 372.235 58.8686 372.782 61.3378C373.328 63.8071 388.317 55.0153 388.317 55.0153C392.001 60.685 393.544 64.455 394.326 73.4009Z" fill="#C49E12" fill-opacity="0.2"/>
<path d="M398.36 146.013L431.62 146.034L431.641 112.823C423.577 112.39 419.671 113.866 413.643 119.124C413.643 119.124 420.451 131.48 419.904 133.95C419.358 136.419 404.369 127.627 404.369 127.627C400.685 133.297 399.142 137.067 398.36 146.013Z" fill="#C49E12" fill-opacity="0.2"/>
<path d="M466.938 146.013L433.678 146.034L433.657 112.823C441.721 112.39 445.627 113.866 451.654 119.124C451.654 119.124 444.847 131.48 445.393 133.95C445.94 136.419 460.929 127.627 460.929 127.627C464.613 133.297 466.155 137.067 466.938 146.013Z" fill="#C49E12" fill-opacity="0.2"/>
<path d="M541.566 217.616L574.826 217.637L574.847 184.426C566.784 183.993 562.878 185.47 556.85 190.728C556.85 190.728 563.658 203.084 563.111 205.553C562.564 208.022 547.576 199.23 547.576 199.23C543.891 204.9 542.349 208.67 541.566 217.616Z" fill="#C49E12" fill-opacity="0.2"/>
<path d="M538.542 73.4008L505.281 73.4217L505.261 40.2111C513.324 39.778 517.23 41.2545 523.258 46.5125C523.258 46.5125 516.45 58.8685 516.997 61.3377C517.543 63.8069 532.532 55.0152 532.532 55.0152C536.217 60.6849 537.759 64.4549 538.542 73.4008Z" fill="#C49E12" fill-opacity="0.2"/>
<path d="M322.898 2.82718L289.463 2.80615L289.442 36.1908C297.548 36.626 301.474 35.1419 307.534 29.8563C307.534 29.8563 300.69 17.4356 301.24 14.9534C301.789 12.4713 316.857 21.3091 316.857 21.3091C320.56 15.6097 322.111 11.8199 322.898 2.82718Z" fill="#C49E12" fill-opacity="0.2"/>
<rect x="574.85" y="73.401" width="73.6203" height="74.6288" fill="#7E7E7E" fill-opacity="0.14"/>
<rect x="575.732" y="74.2826" width="71.857" height="72.8655" stroke="white" stroke-opacity="0.05" stroke-width="1.76334"/>
<rect x="574.85" y="146.013" width="73.6203" height="73.6203" fill="#7E7E7E" fill-opacity="0.14"/>
<rect x="575.732" y="146.894" width="71.857" height="71.857" stroke="white" stroke-opacity="0.05" stroke-width="1.76334"/>
<rect x="574.85" y="217.616" width="73.6203" height="73.6203" fill="#7E7E7E" fill-opacity="0.14"/>
<rect x="575.732" y="218.498" width="71.857" height="71.857" stroke="white" stroke-opacity="0.05" stroke-width="1.76334"/>
<rect x="646.453" y="146.013" width="74.6288" height="73.6203" fill="#7E7E7E" fill-opacity="0.14"/>
<rect x="647.335" y="146.894" width="72.8655" height="71.857" stroke="white" stroke-opacity="0.05" stroke-width="1.76334"/>
<rect x="646.453" y="217.616" width="74.6288" height="73.6203" fill="#7E7E7E" fill-opacity="0.14"/>
<rect x="647.335" y="218.498" width="72.8655" height="71.857" stroke="white" stroke-opacity="0.05" stroke-width="1.76334"/>
<rect x="719.065" y="0.789154" width="73.6203" height="74.6288" fill="#7E7E7E" fill-opacity="0.14"/>
<rect x="719.947" y="1.67083" width="71.857" height="72.8655" stroke="white" stroke-opacity="0.05" stroke-width="1.76334"/>
<rect x="719.065" y="146.013" width="73.6203" height="73.6203" fill="#7E7E7E" fill-opacity="0.14"/>
<rect x="719.947" y="146.894" width="71.857" height="71.857" stroke="white" stroke-opacity="0.05" stroke-width="1.76334"/>
<rect x="719.065" y="217.616" width="73.6203" height="73.6203" fill="#7E7E7E" fill-opacity="0.14"/>
<rect x="719.947" y="218.498" width="71.857" height="71.857" stroke="white" stroke-opacity="0.05" stroke-width="1.76334"/>
<rect x="790.668" y="0.789154" width="73.6203" height="74.6288" fill="#7E7E7E" fill-opacity="0.14"/>
<rect x="791.55" y="1.67083" width="71.857" height="72.8655" stroke="white" stroke-opacity="0.05" stroke-width="1.76334"/>
<rect x="790.668" y="73.401" width="73.6203" height="74.6288" fill="#7E7E7E" fill-opacity="0.14"/>
<rect x="791.55" y="74.2826" width="71.857" height="72.8655" stroke="white" stroke-opacity="0.05" stroke-width="1.76334"/>
<path d="M607.122 75.4698C607.151 97.6591 624.373 115.747 646.441 116.227M616.712 75.4571C616.734 92.5239 629.496 106.153 646.441 106.637" stroke="#687F9E" stroke-opacity="0.5" stroke-width="4.40836"/>
<path d="M759.96 73.3997C759.931 51.4664 742.907 33.5871 721.095 33.1123M750.481 73.4122C750.458 56.5423 737.844 43.0707 721.095 42.5917" stroke="#C49E12" stroke-opacity="0.2" stroke-width="4.40836"/>
<path d="M833.025 75.4711C832.996 97.9545 815.332 116.282 792.698 116.768M823.189 75.4582C823.166 92.7512 810.077 106.56 792.698 107.051" stroke="#687F9E" stroke-opacity="0.5" stroke-width="4.40836"/>
<path d="M617.207 217.618C617.177 195.135 599.514 176.807 576.88 176.321M607.371 217.631C607.348 200.338 594.259 186.529 576.88 186.038" stroke="#C49E12" stroke-opacity="0.2" stroke-width="4.40836"/>
<path d="M678.725 148.083C678.755 170.566 696.419 188.894 719.052 189.38M688.561 148.07C688.584 165.363 701.673 179.172 719.052 179.663" stroke="#C49E12" stroke-opacity="0.2" stroke-width="4.40836"/>
<path d="M757.436 217.623C757.409 197.365 741.493 180.851 721.099 180.412M748.573 217.635C748.553 202.053 736.759 189.61 721.099 189.168" stroke="#C49E12" stroke-opacity="0.2" stroke-width="4.40836"/>
<path d="M757.431 219.681C757.404 239.94 741.488 256.454 721.094 256.892M748.568 219.669C748.547 235.251 736.753 247.694 721.094 248.136" stroke="#C49E12" stroke-opacity="0.2" stroke-width="4.40836"/>
<path d="M607.144 219.685C607.173 241.593 624.385 259.451 646.439 259.925M616.728 219.672C616.751 236.523 629.505 249.979 646.439 250.457" stroke="#687F9E" stroke-opacity="0.5" stroke-width="4.40836"/>
<path d="M821.932 2.85929C821.961 25.3427 839.625 43.6701 862.259 44.1565M831.768 2.84631C831.791 20.1393 844.88 33.9486 862.259 34.4394" stroke="#687F9E" stroke-opacity="0.5" stroke-width="4.40836"/>
<path d="M613.173 148.051L646.433 148.03L646.454 181.24C638.39 181.673 634.484 180.197 628.456 174.939C628.456 174.939 635.264 162.583 634.717 160.114C634.171 157.645 619.182 166.436 619.182 166.436C615.498 160.767 613.955 156.997 613.173 148.051Z" fill="#C49E12" fill-opacity="0.2"/>
<path d="M681.751 219.654L648.491 219.633L648.471 252.844C656.534 253.277 660.44 251.8 666.468 246.542C666.468 246.542 659.66 234.186 660.207 231.717C660.753 229.248 675.742 238.04 675.742 238.04C679.427 232.37 680.969 228.6 681.751 219.654Z" fill="#C49E12" fill-opacity="0.2"/>
<path d="M757.388 148.051L790.648 148.03L790.669 181.24C782.605 181.673 778.699 180.197 772.672 174.939C772.672 174.939 779.48 162.583 778.933 160.114C778.386 157.645 763.397 166.436 763.397 166.436C759.713 160.767 758.171 156.997 757.388 148.051Z" fill="#C49E12" fill-opacity="0.2"/>
<path d="M757.388 289.219L790.648 289.24L790.669 256.03C782.605 255.597 778.699 257.073 772.672 262.331C772.672 262.331 779.48 274.687 778.933 277.156C778.386 279.625 763.397 270.834 763.397 270.834C759.713 276.503 758.171 280.273 757.388 289.219Z" fill="#C49E12" fill-opacity="0.2"/>
<path d="M825.966 73.4008L792.706 73.4217L792.685 40.2111C800.749 39.778 804.655 41.2545 810.682 46.5125C810.682 46.5125 803.875 58.8685 804.421 61.3377C804.968 63.8069 819.957 55.0152 819.957 55.0152C823.641 60.6849 825.184 64.4549 825.966 73.4008Z" fill="#C49E12" fill-opacity="0.2"/>
<rect x="862.275" y="0.789154" width="73.6203" height="74.6288" fill="#7E7E7E" fill-opacity="0.14"/>
<rect x="863.157" y="1.67083" width="71.857" height="72.8655" stroke="white" stroke-opacity="0.05" stroke-width="1.76334"/>
<rect x="862.275" y="73.401" width="73.6203" height="74.6288" fill="#7E7E7E" fill-opacity="0.14"/>
<rect x="863.157" y="74.2826" width="71.857" height="72.8655" stroke="white" stroke-opacity="0.05" stroke-width="1.76334"/>
<rect x="862.275" y="146.013" width="73.6203" height="73.6203" fill="#7E7E7E" fill-opacity="0.14"/>
<rect x="863.157" y="146.894" width="71.857" height="71.857" stroke="white" stroke-opacity="0.05" stroke-width="1.76334"/>
<rect x="862.275" y="217.616" width="73.6203" height="73.6203" fill="#7E7E7E" fill-opacity="0.14"/>
<rect x="863.157" y="218.498" width="71.857" height="71.857" stroke="white" stroke-opacity="0.05" stroke-width="1.76334"/>
<rect x="933.878" y="0.789154" width="74.6288" height="74.6288" fill="#7E7E7E" fill-opacity="0.14"/>
<rect x="934.76" y="1.67083" width="72.8655" height="72.8655" stroke="white" stroke-opacity="0.05" stroke-width="1.76334"/>
<rect x="933.878" y="73.401" width="74.6288" height="74.6288" fill="#7E7E7E" fill-opacity="0.14"/>
<rect x="934.76" y="74.2826" width="72.8655" height="72.8655" stroke="white" stroke-opacity="0.05" stroke-width="1.76334"/>
<rect x="933.878" y="146.013" width="74.6288" height="73.6203" fill="#7E7E7E" fill-opacity="0.14"/>
<rect x="934.76" y="146.894" width="72.8655" height="71.857" stroke="white" stroke-opacity="0.05" stroke-width="1.76334"/>
<rect x="933.878" y="217.616" width="74.6288" height="73.6203" fill="#7E7E7E" fill-opacity="0.14"/>
<rect x="934.76" y="218.498" width="72.8655" height="71.857" stroke="white" stroke-opacity="0.05" stroke-width="1.76334"/>
<rect x="1006.49" y="0.789154" width="73.6203" height="74.6288" fill="#7E7E7E" fill-opacity="0.14"/>
<rect x="1007.37" y="1.67083" width="71.857" height="72.8655" stroke="white" stroke-opacity="0.05" stroke-width="1.76334"/>
<path d="M1006.49 73.401H1080.11V148.03H1006.49V73.401Z" fill="#7E7E7E" fill-opacity="0.14"/>
<path d="M1007.37 74.2826H1079.23V147.148H1007.37V74.2826Z" stroke="white" stroke-opacity="0.05" stroke-width="1.76334"/>
<rect x="1006.49" y="146.013" width="73.6203" height="73.6203" fill="#7E7E7E" fill-opacity="0.14"/>
<rect x="1007.37" y="146.894" width="71.857" height="71.857" stroke="white" stroke-opacity="0.05" stroke-width="1.76334"/>
<rect x="1006.49" y="217.616" width="73.6203" height="73.6203" fill="#7E7E7E" fill-opacity="0.14"/>
<rect x="1007.37" y="218.498" width="71.857" height="71.857" stroke="white" stroke-opacity="0.05" stroke-width="1.76334"/>
<rect x="1078.09" y="0.789154" width="73.6203" height="74.6288" fill="#7E7E7E" fill-opacity="0.14"/>
<rect x="1078.97" y="1.67083" width="71.857" height="72.8655" stroke="white" stroke-opacity="0.05" stroke-width="1.76334"/>
<rect x="1078.09" y="73.401" width="73.6203" height="74.6288" fill="#7E7E7E" fill-opacity="0.14"/>
<rect x="1078.97" y="74.2826" width="71.857" height="72.8655" stroke="white" stroke-opacity="0.05" stroke-width="1.76334"/>
<rect x="1078.09" y="146.013" width="73.6203" height="73.6203" fill="#7E7E7E" fill-opacity="0.14"/>
<rect x="1078.97" y="146.894" width="71.857" height="71.857" stroke="white" stroke-opacity="0.05" stroke-width="1.76334"/>
<rect x="1078.09" y="217.616" width="73.6203" height="73.6203" fill="#7E7E7E" fill-opacity="0.14"/>
<rect x="1078.97" y="218.498" width="71.857" height="71.857" stroke="white" stroke-opacity="0.05" stroke-width="1.76334"/>
<path d="M894.547 73.3517C894.576 51.1625 911.798 33.0744 933.866 32.594M904.137 73.3644C904.159 56.2976 916.921 42.6687 933.866 42.1841" stroke="#C49E12" stroke-opacity="0.2" stroke-width="4.40836"/>
<path d="M894.547 75.4698C894.576 97.6591 911.798 115.747 933.866 116.227M904.137 75.4571C904.159 92.5239 916.921 106.153 933.866 106.637" stroke="#687F9E" stroke-opacity="0.5" stroke-width="4.40836"/>
<path d="M975.227 75.4698C975.198 97.6591 957.975 115.747 935.908 116.227M965.637 75.4571C965.615 92.5239 952.853 106.153 935.908 106.637" stroke="#C49E12" stroke-opacity="0.2" stroke-width="4.40836"/>
<path d="M1047.39 73.3997C1047.36 51.4664 1030.33 33.5871 1008.52 33.1123M1037.91 73.4122C1037.88 56.5423 1025.27 43.0707 1008.52 42.5917" stroke="#C49E12" stroke-opacity="0.2" stroke-width="4.40836"/>
<path d="M968.189 2.85599C968.217 24.2152 984.988 41.6262 1006.48 42.0883M977.527 2.84367C977.549 19.272 989.976 32.3908 1006.48 32.857" stroke="#687F9E" stroke-opacity="0.5" stroke-width="4.40836"/>
<path d="M1037.75 75.4692C1037.78 97.9526 1055.45 116.28 1078.08 116.766M1047.59 75.4562C1047.61 92.7492 1060.7 106.559 1078.08 107.049" stroke="#C49E12" stroke-opacity="0.2" stroke-width="4.40836"/>
<path d="M1120.45 148.083C1120.42 170.566 1102.76 188.894 1080.12 189.38M1110.61 148.07C1110.59 165.363 1097.5 179.172 1080.12 179.663" stroke="#C49E12" stroke-opacity="0.2" stroke-width="4.40836"/>
<path d="M1120.45 75.4711C1120.42 97.9545 1102.76 116.282 1080.12 116.768M1110.61 75.4582C1110.59 92.7512 1097.5 106.56 1080.12 107.051" stroke="#687F9E" stroke-opacity="0.5" stroke-width="4.40836"/>
<path d="M904.632 217.618C904.602 195.135 886.938 176.807 864.305 176.321M894.796 217.631C894.773 200.338 881.684 186.529 864.305 186.038" stroke="#C49E12" stroke-opacity="0.2" stroke-width="4.40836"/>
<path d="M966.15 148.083C966.18 170.566 983.844 188.894 1006.48 189.38M975.986 148.07C976.009 165.363 989.098 179.172 1006.48 179.663" stroke="#C49E12" stroke-opacity="0.2" stroke-width="4.40836"/>
<path d="M1044.86 217.623C1044.83 197.365 1028.92 180.851 1008.52 180.412M1036 217.635C1035.98 202.053 1024.18 189.61 1008.52 189.168" stroke="#C49E12" stroke-opacity="0.2" stroke-width="4.40836"/>
<path d="M1044.86 219.681C1044.83 239.94 1028.91 256.454 1008.52 256.892M1035.99 219.669C1035.97 235.251 1024.18 247.694 1008.52 248.136" stroke="#C49E12" stroke-opacity="0.2" stroke-width="4.40836"/>
<path d="M1113.39 289.164C1113.42 268.905 1129.33 252.391 1149.73 251.953M1122.25 289.176C1122.27 273.594 1134.07 261.151 1149.73 260.709" stroke="#C49E12" stroke-opacity="0.2" stroke-width="4.40836"/>
<path d="M894.569 219.685C894.598 241.593 911.81 259.451 933.864 259.925M904.154 219.672C904.176 236.523 916.93 249.979 933.864 250.457" stroke="#687F9E" stroke-opacity="0.5" stroke-width="4.40836"/>
<path d="M1109.36 2.85932C1109.39 25.3427 1127.05 43.6701 1149.68 44.1565M1119.19 2.84634C1119.22 20.1393 1132.3 33.9487 1149.68 34.4394" stroke="#687F9E" stroke-opacity="0.5" stroke-width="4.40836"/>
<path d="M969.176 73.4009L935.916 73.4218L935.895 40.2112C943.959 39.7782 947.865 41.2546 953.892 46.5126C953.892 46.5126 947.085 58.8686 947.631 61.3378C948.178 63.8071 963.167 55.0153 963.167 55.0153C966.851 60.685 968.393 64.455 969.176 73.4009Z" fill="#C49E12" fill-opacity="0.2"/>
<path d="M973.209 146.013L1006.47 146.034L1006.49 112.823C998.427 112.39 994.521 113.866 988.493 119.124C988.493 119.124 995.301 131.48 994.754 133.95C994.208 136.419 979.219 127.627 979.219 127.627C975.534 133.297 973.992 137.067 973.209 146.013Z" fill="#C49E12" fill-opacity="0.2"/>
<path d="M900.597 148.051L933.857 148.03L933.878 181.24C925.815 181.673 921.909 180.197 915.881 174.939C915.881 174.939 922.689 162.583 922.142 160.114C921.595 157.645 906.607 166.436 906.607 166.436C902.922 160.767 901.38 156.997 900.597 148.051Z" fill="#C49E12" fill-opacity="0.2"/>
<path d="M969.176 219.654L935.916 219.633L935.895 252.844C943.959 253.277 947.865 251.8 953.892 246.542C953.892 246.542 947.085 234.186 947.631 231.717C948.178 229.248 963.167 238.04 963.167 238.04C966.851 232.37 968.393 228.6 969.176 219.654Z" fill="#C49E12" fill-opacity="0.2"/>
<path d="M1041.79 146.013L1008.53 146.034L1008.51 112.823C1016.57 112.39 1020.48 113.866 1026.5 119.124C1026.5 119.124 1019.7 131.48 1020.24 133.95C1020.79 136.419 1035.78 127.627 1035.78 127.627C1039.46 133.297 1041.01 137.067 1041.79 146.013Z" fill="#C49E12" fill-opacity="0.2"/>
<path d="M1044.81 148.051L1078.07 148.03L1078.09 181.24C1070.03 181.673 1066.12 180.197 1060.1 174.939C1060.1 174.939 1066.9 162.583 1066.36 160.114C1065.81 157.645 1050.82 166.436 1050.82 166.436C1047.14 160.767 1045.6 156.997 1044.81 148.051Z" fill="#C49E12" fill-opacity="0.2"/>
<path d="M1044.81 289.219L1078.07 289.24L1078.09 256.03C1070.03 255.597 1066.12 257.073 1060.1 262.331C1060.1 262.331 1066.9 274.687 1066.36 277.156C1065.81 279.625 1050.82 270.834 1050.82 270.834C1047.14 276.503 1045.6 280.273 1044.81 289.219Z" fill="#C49E12" fill-opacity="0.2"/>
<path d="M1116.42 217.616L1149.68 217.637L1149.7 184.426C1141.63 183.993 1137.73 185.47 1131.7 190.728C1131.7 190.728 1138.51 203.084 1137.96 205.553C1137.41 208.022 1122.43 199.23 1122.43 199.23C1118.74 204.9 1117.2 208.67 1116.42 217.616Z" fill="#C49E12" fill-opacity="0.2"/>
<path d="M1113.39 73.4008L1080.13 73.4217L1080.11 40.2111C1088.17 39.778 1092.08 41.2545 1098.11 46.5125C1098.11 46.5125 1091.3 58.8685 1091.85 61.3377C1092.39 63.8069 1107.38 55.0152 1107.38 55.0152C1111.07 60.6849 1112.61 64.4549 1113.39 73.4008Z" fill="#C49E12" fill-opacity="0.2"/>
<path d="M897.747 2.82718L864.313 2.80615L864.292 36.1908C872.398 36.626 876.324 35.1419 882.383 29.8563C882.383 29.8563 875.54 17.4356 876.089 14.9534C876.639 12.4713 891.706 21.3091 891.706 21.3091C895.41 15.6097 896.96 11.8199 897.747 2.82718Z" fill="#C49E12" fill-opacity="0.2"/>
<rect x="1149.7" y="0.789154" width="73.6203" height="74.6288" fill="#7E7E7E" fill-opacity="0.14"/>
<rect x="1150.58" y="1.67083" width="71.857" height="72.8655" stroke="white" stroke-opacity="0.05" stroke-width="1.76334"/>
<rect x="1149.7" y="73.401" width="73.6203" height="74.6288" fill="#7E7E7E" fill-opacity="0.14"/>
<rect x="1150.58" y="74.2826" width="71.857" height="72.8655" stroke="white" stroke-opacity="0.05" stroke-width="1.76334"/>
<rect x="1149.7" y="146.013" width="73.6203" height="73.6203" fill="#7E7E7E" fill-opacity="0.14"/>
<rect x="1150.58" y="146.895" width="71.857" height="71.857" stroke="white" stroke-opacity="0.05" stroke-width="1.76334"/>
<rect x="1149.7" y="217.616" width="73.6203" height="73.6203" fill="#7E7E7E" fill-opacity="0.14"/>
<rect x="1150.58" y="218.498" width="71.857" height="71.857" stroke="white" stroke-opacity="0.05" stroke-width="1.76334"/>
<rect x="1221.3" y="0.789154" width="74.6288" height="74.6288" fill="#7E7E7E" fill-opacity="0.14"/>
<rect x="1222.19" y="1.67083" width="72.8655" height="72.8655" stroke="white" stroke-opacity="0.05" stroke-width="1.76334"/>
<rect x="1221.3" y="73.401" width="74.6288" height="74.6288" fill="#7E7E7E" fill-opacity="0.14"/>
<rect x="1222.19" y="74.2826" width="72.8655" height="72.8655" stroke="white" stroke-opacity="0.05" stroke-width="1.76334"/>
<rect x="1221.3" y="146.013" width="74.6288" height="73.6203" fill="#7E7E7E" fill-opacity="0.14"/>
<rect x="1222.19" y="146.895" width="72.8655" height="71.857" stroke="white" stroke-opacity="0.05" stroke-width="1.76334"/>
<rect x="1221.3" y="217.616" width="74.6288" height="73.6203" fill="#7E7E7E" fill-opacity="0.14"/>
<rect x="1222.19" y="218.498" width="72.8655" height="71.857" stroke="white" stroke-opacity="0.05" stroke-width="1.76334"/>
<rect x="1293.92" y="0.789154" width="73.6203" height="74.6288" fill="#7E7E7E" fill-opacity="0.14"/>
<rect x="1294.8" y="1.67083" width="71.857" height="72.8655" stroke="white" stroke-opacity="0.05" stroke-width="1.76334"/>
<path d="M1293.92 73.401H1367.54V148.03H1293.92V73.401Z" fill="#7E7E7E" fill-opacity="0.14"/>
<path d="M1294.8 74.2826H1366.65V147.148H1294.8V74.2826Z" stroke="white" stroke-opacity="0.05" stroke-width="1.76334"/>
<rect x="1293.92" y="146.013" width="73.6203" height="73.6203" fill="#7E7E7E" fill-opacity="0.14"/>
<rect x="1294.8" y="146.895" width="71.857" height="71.857" stroke="white" stroke-opacity="0.05" stroke-width="1.76334"/>
<rect x="1293.92" y="217.616" width="73.6203" height="73.6203" fill="#7E7E7E" fill-opacity="0.14"/>
<rect x="1294.8" y="218.498" width="71.857" height="71.857" stroke="white" stroke-opacity="0.05" stroke-width="1.76334"/>
<rect x="1365.52" y="0.789154" width="73.6203" height="74.6288" fill="#7E7E7E" fill-opacity="0.14"/>
<rect x="1366.4" y="1.67083" width="71.857" height="72.8655" stroke="white" stroke-opacity="0.05" stroke-width="1.76334"/>
<rect x="1365.52" y="73.401" width="73.6203" height="74.6288" fill="#7E7E7E" fill-opacity="0.14"/>
<rect x="1366.4" y="74.2826" width="71.857" height="72.8655" stroke="white" stroke-opacity="0.05" stroke-width="1.76334"/>
<rect x="1365.52" y="146.013" width="73.6203" height="73.6203" fill="#7E7E7E" fill-opacity="0.14"/>
<rect x="1366.4" y="146.895" width="71.857" height="71.857" stroke="white" stroke-opacity="0.05" stroke-width="1.76334"/>
<rect x="1365.52" y="217.616" width="73.6203" height="73.6203" fill="#7E7E7E" fill-opacity="0.14"/>
<rect x="1366.4" y="218.498" width="71.857" height="71.857" stroke="white" stroke-opacity="0.05" stroke-width="1.76334"/>
<path d="M1181.97 73.3517C1182 51.1625 1199.22 33.0744 1221.29 32.594M1191.56 73.3644C1191.58 56.2976 1204.35 42.6687 1221.29 42.1841" stroke="#C49E12" stroke-opacity="0.2" stroke-width="4.40836"/>
<path d="M1181.97 75.4698C1182 97.6591 1199.22 115.747 1221.29 116.227M1191.56 75.4571C1191.58 92.524 1204.35 106.153 1221.29 106.637" stroke="#687F9E" stroke-opacity="0.5" stroke-width="4.40836"/>
<path d="M1262.65 75.4698C1262.62 97.6591 1245.4 115.747 1223.33 116.227M1253.06 75.4571C1253.04 92.524 1240.28 106.153 1223.33 106.637" stroke="#C49E12" stroke-opacity="0.2" stroke-width="4.40836"/>
<path d="M1334.81 73.3997C1334.78 51.4665 1317.76 33.5872 1295.94 33.1123M1325.33 73.4122C1325.31 56.5423 1312.69 43.0707 1295.94 42.5917" stroke="#C49E12" stroke-opacity="0.2" stroke-width="4.40836"/>
<path d="M1255.61 2.85599C1255.64 24.2152 1272.41 41.6262 1293.9 42.0883M1264.95 2.84367C1264.97 19.272 1277.4 32.3908 1293.9 32.857" stroke="#687F9E" stroke-opacity="0.5" stroke-width="4.40836"/>
<path d="M1325.18 75.4692C1325.21 97.9526 1342.87 116.28 1365.51 116.766M1335.01 75.4562C1335.04 92.7492 1348.13 106.559 1365.51 107.049" stroke="#C49E12" stroke-opacity="0.2" stroke-width="4.40836"/>
<path d="M1407.88 148.083C1407.85 170.566 1390.18 188.894 1367.55 189.38M1398.04 148.07C1398.02 165.363 1384.93 179.172 1367.55 179.663" stroke="#C49E12" stroke-opacity="0.2" stroke-width="4.40836"/>
<path d="M1407.88 75.4712C1407.85 97.9545 1390.18 116.282 1367.55 116.768M1398.04 75.4582C1398.02 92.7512 1384.93 106.561 1367.55 107.051" stroke="#687F9E" stroke-opacity="0.5" stroke-width="4.40836"/>
<path d="M1192.06 217.618C1192.03 195.135 1174.36 176.807 1151.73 176.321M1182.22 217.631C1182.2 200.338 1169.11 186.529 1151.73 186.038" stroke="#C49E12" stroke-opacity="0.2" stroke-width="4.40836"/>
<path d="M1253.58 148.083C1253.61 170.566 1271.27 188.894 1293.9 189.38M1263.41 148.07C1263.43 165.363 1276.52 179.172 1293.9 179.663" stroke="#C49E12" stroke-opacity="0.2" stroke-width="4.40836"/>
<path d="M1332.29 217.623C1332.26 197.365 1316.34 180.851 1295.95 180.412M1323.42 217.635C1323.4 202.053 1311.61 189.61 1295.95 189.168" stroke="#C49E12" stroke-opacity="0.2" stroke-width="4.40836"/>
<path d="M1332.28 219.681C1332.25 239.94 1316.34 256.454 1295.94 256.892M1323.42 219.669C1323.4 235.251 1311.6 247.694 1295.94 248.136" stroke="#C49E12" stroke-opacity="0.2" stroke-width="4.40836"/>
<path d="M1400.82 289.164C1400.84 268.905 1416.76 252.391 1437.15 251.953M1409.68 289.176C1409.7 273.594 1421.49 261.151 1437.15 260.709" stroke="#C49E12" stroke-opacity="0.2" stroke-width="4.40836"/>
<path d="M1181.99 219.685C1182.02 241.593 1199.23 259.451 1221.29 259.925M1191.58 219.672C1191.6 236.523 1204.35 249.979 1221.29 250.457" stroke="#687F9E" stroke-opacity="0.5" stroke-width="4.40836"/>
<path d="M1396.78 2.85932C1396.81 25.3427 1414.48 43.6701 1437.11 44.1565M1406.62 2.84634C1406.64 20.1393 1419.73 33.9487 1437.11 34.4394" stroke="#687F9E" stroke-opacity="0.5" stroke-width="4.40836"/>
<path d="M1256.6 73.4009L1223.34 73.4218L1223.32 40.2112C1231.38 39.7782 1235.29 41.2546 1241.32 46.5126C1241.32 46.5126 1234.51 58.8686 1235.06 61.3378C1235.6 63.8071 1250.59 55.0153 1250.59 55.0153C1254.28 60.685 1255.82 64.455 1256.6 73.4009Z" fill="#C49E12" fill-opacity="0.2"/>
<path d="M1260.63 146.013L1293.89 146.034L1293.92 112.823C1285.85 112.39 1281.95 113.866 1275.92 119.124C1275.92 119.124 1282.73 131.48 1282.18 133.95C1281.63 136.419 1266.64 127.627 1266.64 127.627C1262.96 133.297 1261.42 137.067 1260.63 146.013Z" fill="#C49E12" fill-opacity="0.2"/>
<path d="M1188.02 148.051L1221.28 148.03L1221.3 181.24C1213.24 181.674 1209.33 180.197 1203.31 174.939C1203.31 174.939 1210.11 162.583 1209.57 160.114C1209.02 157.645 1194.03 166.436 1194.03 166.436C1190.35 160.767 1188.81 156.997 1188.02 148.051Z" fill="#C49E12" fill-opacity="0.2"/>
<path d="M1256.6 219.654L1223.34 219.633L1223.32 252.844C1231.38 253.277 1235.29 251.8 1241.32 246.542C1241.32 246.542 1234.51 234.186 1235.06 231.717C1235.6 229.248 1250.59 238.04 1250.59 238.04C1254.28 232.37 1255.82 228.6 1256.6 219.654Z" fill="#C49E12" fill-opacity="0.2"/>
<path d="M1329.21 146.013L1295.95 146.034L1295.93 112.823C1304 112.39 1307.9 113.866 1313.93 119.124C1313.93 119.124 1307.12 131.48 1307.67 133.95C1308.22 136.419 1323.2 127.627 1323.2 127.627C1326.89 133.297 1328.43 137.067 1329.21 146.013Z" fill="#C49E12" fill-opacity="0.2"/>
<path d="M1332.24 148.051L1365.5 148.03L1365.52 181.24C1357.46 181.674 1353.55 180.197 1347.52 174.939C1347.52 174.939 1354.33 162.583 1353.78 160.114C1353.24 157.645 1338.25 166.436 1338.25 166.436C1334.56 160.767 1333.02 156.997 1332.24 148.051Z" fill="#C49E12" fill-opacity="0.2"/>
<path d="M1332.24 289.219L1365.5 289.24L1365.52 256.03C1357.46 255.597 1353.55 257.073 1347.52 262.331C1347.52 262.331 1354.33 274.687 1353.78 277.156C1353.24 279.625 1338.25 270.834 1338.25 270.834C1334.56 276.503 1333.02 280.273 1332.24 289.219Z" fill="#C49E12" fill-opacity="0.2"/>
<path d="M1403.84 217.616L1437.1 217.637L1437.12 184.426C1429.06 183.993 1425.15 185.47 1419.13 190.728C1419.13 190.728 1425.93 203.084 1425.39 205.553C1424.84 208.022 1409.85 199.23 1409.85 199.23C1406.17 204.9 1404.62 208.67 1403.84 217.616Z" fill="#C49E12" fill-opacity="0.2"/>
<path d="M1400.82 73.4008L1367.56 73.4217L1367.54 40.2111C1375.6 39.778 1379.51 41.2545 1385.53 46.5125C1385.53 46.5125 1378.73 58.8685 1379.27 61.3377C1379.82 63.8069 1394.81 55.0152 1394.81 55.0152C1398.49 60.6849 1400.03 64.4549 1400.82 73.4008Z" fill="#C49E12" fill-opacity="0.2"/>
<path d="M1185.17 2.82721L1151.74 2.80618L1151.72 36.1908C1159.82 36.6261 1163.75 35.1419 1169.81 29.8563C1169.81 29.8563 1162.97 17.4356 1163.51 14.9535C1164.06 12.4713 1179.13 21.3091 1179.13 21.3091C1182.84 15.6097 1184.39 11.82 1185.17 2.82721Z" fill="#C49E12" fill-opacity="0.2"/>
</g>
</svg>
